<?xml version="1.0" encoding="utf-8"?>
<!-- Generator: Adobe Illustrator 16.0.4, SVG Export Plug-In . SVG Version: 6.00 Build 0)  -->
<!DOCTYPE svg PUBLIC "-//W3C//DTD SVG 1.1//EN" "http://www.w3.org/Graphics/SVG/1.1/DTD/svg11.dtd">
<svg version="1.1" id="Layer_1" xmlns="http://www.w3.org/2000/svg" xmlns:xlink="http://www.w3.org/1999/xlink" x="0px" y="0px"
	 width="960px" height="560px" viewBox="0 0 960 560" enable-background="new 0 0 960 560" xml:space="preserve">
<g opacity="0.05">
	<g>
		<g>
			
				<image overflow="visible" opacity="0.3" enable-background="new    " width="129" height="130" xlink:href="6A858819FC68E42D.png"  transform="matrix(0.9922 0 0 0.9923 301.9131 75.9131)">
			</image>
			<g>
				<path fill="#5393AA" d="M422.188,138.257c0,32.192-26.083,58.267-58.268,58.267c-32.174,0-58.272-26.074-58.272-58.267
					c0-32.176,26.098-58.261,58.272-58.261C396.103,79.996,422.188,106.081,422.188,138.257z"/>
			</g>
		</g>
		<g>
			<g>
				<g>
					<path fill="#FFFFFF" d="M382.645,136.694l9.074,1.873c0,0-4.719-3.009-5.812-11.646c-0.935-7.443,1.637-9.893,1.637-9.893
						l-9.033-1.858c0,0-2.403,3.004-1.631,9.893C377.835,133.688,382.645,136.694,382.645,136.694z"/>
					<g>
						<g>
							<path fill="#FFFFFF" d="M374.82,126.635c-4.469,5.488-8.847,6.614-8.847,6.614l9.206,1.905c0,0,0.95-0.153,2.354-0.84
								C376.399,132.47,375.365,129.945,374.82,126.635z"/>
						</g>
						<g>
							<path fill="#FFFFFF" d="M376.88,125.062c0.402,3.647,1.497,6.237,2.622,8.073c1.754-1.244,3.784-3.222,5.584-6.388
								c0.274-0.486,0.478-0.932,0.699-1.385c-0.387-5.919,1.55-8.114,1.722-8.293c0-0.004-0.006-0.041-0.006-0.041l-8.829-1.828
								l-0.16-0.03c0,0-0.021,0.03-0.023,0.035c0.119,0.224,1.322,2.833-1.701,8.42C376.813,124.098,376.821,124.547,376.88,125.062
								z"/>
						</g>
					</g>
					<path fill="#FFFFFF" d="M365.475,133.153l9.074,1.88c0,0-4.737-3.016-5.817-11.654c-0.929-7.441,1.634-9.891,1.634-9.891
						l-9.031-1.864c0,0-2.4,3.015-1.637,9.887C360.663,130.143,365.475,133.153,365.475,133.153z"/>
					<g>
						<g>
							<path fill="#FFFFFF" d="M359.699,121.511c0.408,3.647,1.503,6.243,2.633,8.078c1.748-1.243,3.775-3.219,5.576-6.382
								c0.276-0.487,0.483-0.933,0.705-1.39c-0.381-5.884,1.524-8.084,1.716-8.283c-0.003-0.01-0.009-0.045-0.009-0.045l-8.987-1.86
								c0,0-0.017,0.025-0.023,0.031c0.111,0.201,1.34,2.802-1.698,8.42C359.634,120.552,359.643,120.999,359.699,121.511z"/>
						</g>
						<g>
							<path fill="#FFFFFF" d="M357.645,123.09c-4.472,5.488-9.098,6.569-9.098,6.569l9.45,1.95c0,0,0.952-0.153,2.362-0.84
								C359.227,128.922,358.189,126.396,357.645,123.09z"/>
						</g>
					</g>
					<path fill="#FFFFFF" d="M348.547,129.659l9.071,1.875c0,0-4.737-3.011-5.814-11.648c-0.938-7.441,1.631-9.887,1.631-9.887
						l-9.028-1.864c0,0-2.4,3.011-1.643,9.893C343.735,126.656,348.547,129.659,348.547,129.659z"/>
				</g>
				<g>
					<g>
						<path fill="#FFFFFF" d="M342.765,118.027c0.411,3.647,1.509,6.24,2.636,8.074c1.753-1.243,3.778-3.219,5.576-6.383
							c0.276-0.489,0.483-0.935,0.705-1.391c-0.382-5.863,1.506-8.069,1.712-8.281c-0.002-0.013-0.011-0.054-0.011-0.054
							l-8.976-1.855c0,0-0.023,0.032-0.029,0.038c0.131,0.245,1.317,2.852-1.701,8.42
							C342.701,117.066,342.709,117.512,342.765,118.027z"/>
					</g>
					<g>
						<path fill="#FFFFFF" d="M340.711,119.606c-4.469,5.48-10.63,6.25-10.63,6.25l10.991,2.266c0,0,0.952-0.153,2.359-0.84
							C342.299,125.436,341.259,122.913,340.711,119.606z"/>
					</g>
				</g>
			</g>
			<g>
				<g>
					<path fill="#FFFFFF" d="M378.243,162.852l9.257,0.314c0,0-5.17-2.165-7.696-10.499c-2.17-7.178-0.052-10.02-0.052-10.02
						l-9.211-0.316c0,0-1.864,3.367,0.049,10.021C372.991,160.702,378.243,162.852,378.243,162.852z"/>
					<g>
						<g>
							<path fill="#FFFFFF" d="M370.59,152.354c1.014,3.524,2.529,5.896,3.95,7.516c1.518-1.521,3.187-3.811,4.431-7.23
								c0.189-0.524,0.314-0.99,0.455-1.474c-1.369-5.733,0.134-8.231,0.294-8.466c-0.006-0.016-0.021-0.051-0.021-0.051
								l-9.159-0.316c0,0-0.018,0.036-0.021,0.045c0.178,0.23,1.762,2.6-0.262,8.569C370.363,151.41,370.448,151.852,370.59,152.354
								z"/>
						</g>
						<g>
							<path fill="#FFFFFF" d="M368.799,154.305c-3.484,6.126-6.697,8.04-6.697,8.04l8.515,0.239c0,0,0.9-0.303,2.165-1.212
								C371.356,159.747,369.888,157.457,368.799,154.305z"/>
						</g>
					</g>
					<path fill="#FFFFFF" d="M360.718,162.258l9.257,0.317c0,0-5.167-2.17-7.699-10.513c-2.17-7.172-0.05-10.015-0.05-10.015
						l-9.214-0.316c0,0-1.858,3.375,0.052,10.022C355.463,160.105,360.718,162.258,360.718,162.258z"/>
					<g>
						<g>
							<path fill="#FFFFFF" d="M353.065,151.753c1.014,3.527,2.532,5.902,3.953,7.524c1.518-1.521,3.184-3.813,4.428-7.236
								c0.189-0.521,0.315-0.993,0.458-1.477c-1.372-5.732,0.125-8.228,0.288-8.467c-0.003-0.01-0.02-0.051-0.02-0.051l-9.159-0.316
								c0,0-0.018,0.036-0.021,0.043c0.166,0.211,1.78,2.574-0.259,8.575C352.838,150.81,352.923,151.255,353.065,151.753z"/>
						</g>
						<g>
							<path fill="#FFFFFF" d="M351.274,153.705c-3.481,6.123-6.49,8.028-6.49,8.028l8.314,0.268c0,0,0.903-0.309,2.162-1.218
								C353.837,159.155,352.364,156.866,351.274,153.705z"/>
						</g>
					</g>
					<path fill="#FFFFFF" d="M343.447,161.669l9.261,0.314c0,0-5.177-2.165-7.702-10.507c-2.182-7.178-0.056-10.015-0.056-10.015
						l-9.217-0.32c0,0-1.853,3.37,0.058,10.029C338.197,159.52,343.447,161.669,343.447,161.669z"/>
				</g>
			</g>
			<path fill="none" stroke="#FFFFFF" stroke-width="0.8841" stroke-miterlimit="10" d="M387.122,136.348
				c0,0,9.429,4.141,15.692,1.349c7.536-3.362,7.705,13.603-0.646,19.373c-12.252,8.465-21.554,4.099-21.554,4.099"/>
			<g>
				<g>
					<path fill="#FFFFFF" d="M335.791,151.17c1.017,3.525,2.532,5.893,3.953,7.516c1.515-1.521,3.178-3.816,4.419-7.236
						c0.192-0.524,0.318-0.996,0.46-1.48c-1.387-5.788,0.163-8.274,0.3-8.468c-0.003-0.007-0.017-0.041-0.017-0.041l-9.173-0.32
						c0,0-0.015,0.03-0.018,0.035c0.137,0.173,1.794,2.532-0.256,8.579C335.561,150.218,335.646,150.667,335.791,151.17z"/>
				</g>
				<g>
					<path fill="#FFFFFF" d="M334,153.111c-3.484,6.135-9.403,7.912-9.403,7.912l11.227,0.385c0,0,0.903-0.306,2.165-1.215
						C336.563,158.564,335.089,156.274,334,153.111z"/>
				</g>
			</g>
		</g>
	</g>
	<g>
		<g>
			
				<image overflow="visible" opacity="0.3" enable-background="new    " width="178" height="178" xlink:href="6A858819FC68E42E.png"  transform="matrix(0.9944 0 0 0.9944 12.9136 241.9121)">
			</image>
			<g>
				<path fill="#477C93" d="M181.539,328.247c0,45.587-36.949,82.532-82.534,82.532c-45.581,0-82.534-36.945-82.534-82.532
					c0-45.585,36.953-82.53,82.534-82.53C144.59,245.717,181.539,282.662,181.539,328.247z"/>
			</g>
		</g>
		<g>
			<polygon fill="none" stroke="#FFFFFF" stroke-width="2.8704" stroke-miterlimit="10" points="72.014,356.479 61.299,337.92 
				72.014,319.367 93.439,319.367 104.15,337.92 93.439,356.479 			"/>
			<polygon fill="none" stroke="#FFFFFF" stroke-width="2.8704" stroke-miterlimit="10" points="103.969,337.532 93.247,318.972 
				103.969,300.412 125.406,300.412 136.119,318.972 125.406,337.532 			"/>
			<path fill="#FFFFFF" d="M104.074,288.559c0,4.03-3.266,7.308-7.301,7.308c-4.045,0-7.319-3.276-7.319-7.308
				c0-4.057,3.274-7.332,7.319-7.332C100.808,281.227,104.074,284.502,104.074,288.559z"/>
			<path fill="#FFFFFF" d="M139.589,349.432c0,4.027-3.278,7.295-7.307,7.295c-4.047,0-7.317-3.268-7.317-7.295
				c0-4.043,3.27-7.326,7.317-7.326C136.311,342.104,139.589,345.389,139.589,349.432z"/>
			
				<line fill="none" stroke="#FFFFFF" stroke-width="2.8704" stroke-miterlimit="10" x1="97.188" y1="288.876" x2="103.919" y2="300.553"/>
			
				<line fill="none" stroke="#FFFFFF" stroke-width="2.8704" stroke-miterlimit="10" x1="125.835" y1="337.812" x2="132.562" y2="349.49"/>
			<path fill="#FFFFFF" d="M71.861,307.641c0,4.049-3.276,7.324-7.32,7.324c-4.037,0-7.311-3.275-7.311-7.324
				c0-4.039,3.274-7.311,7.311-7.311C68.585,300.33,71.861,303.602,71.861,307.641z"/>
			<path fill="#FFFFFF" d="M107.364,368.52c0,4.035-3.28,7.319-7.328,7.319c-4.025,0-7.31-3.284-7.31-7.319
				c0-4.044,3.284-7.312,7.31-7.312C104.084,361.208,107.364,364.476,107.364,368.52z"/>
			
				<line fill="none" stroke="#FFFFFF" stroke-width="2.8704" stroke-miterlimit="10" x1="64.971" y1="307.971" x2="71.688" y2="319.648"/>
			<path fill="#FFFFFF" d="M51.291,331.552c3.493,2.021,4.693,6.492,2.669,9.991c-2.012,3.499-6.482,4.688-9.975,2.682
				c-3.49-2.021-4.699-6.502-2.68-10.003C43.323,330.723,47.8,329.521,51.291,331.552z"/>
			
				<line fill="none" stroke="#FFFFFF" stroke-width="2.8704" stroke-miterlimit="10" x1="48.143" y1="337.673" x2="61.598" y2="337.689"/>
			<g>
				<path fill="#FFFFFF" d="M61.451,362.388c3.491-2.038,7.968-0.825,9.985,2.675c2.034,3.49,0.829,7.964-2.684,9.992
					c-3.493,2.022-7.959,0.817-9.983-2.682C56.758,368.874,57.955,364.401,61.451,362.388z"/>
				
					<line fill="none" stroke="#FFFFFF" stroke-width="2.8704" stroke-miterlimit="10" x1="65.177" y1="368.182" x2="71.927" y2="356.521"/>
			</g>
			<g>
				<path fill="#FFFFFF" d="M146.711,324.938c-3.499-2.018-4.7-6.485-2.676-9.984c2.026-3.494,6.486-4.699,9.995-2.687
					c3.493,2.025,4.693,6.498,2.666,9.985C154.674,325.759,150.218,326.959,146.711,324.938z"/>
				
					<line fill="none" stroke="#FFFFFF" stroke-width="2.8704" stroke-miterlimit="10" x1="149.863" y1="318.807" x2="136.394" y2="318.807"/>
			</g>
			<g>
				<path fill="#FFFFFF" d="M136.257,294.1c-3.516,2.029-7.98,0.83-9.994-2.67c-2.013-3.498-0.827-7.968,2.676-9.984
					c3.493-2.021,7.974-0.816,9.987,2.67C140.938,287.604,139.748,292.077,136.257,294.1z"/>
				
					<line fill="none" stroke="#FFFFFF" stroke-width="2.8704" stroke-miterlimit="10" x1="132.519" y1="288.307" x2="125.792" y2="299.967"/>
			</g>
			
				<line fill="none" stroke="#FFFFFF" stroke-width="2.8704" stroke-miterlimit="10" x1="93.608" y1="356.908" x2="100.34" y2="368.586"/>
		</g>
	</g>
	<g>
		<g>
			
				<line fill="none" stroke="#2E5160" stroke-width="30" stroke-miterlimit="10" x1="174.396" y1="272.411" x2="276.264" y2="198.324"/>
			<g>
				<polygon fill="#2E5160" points="286.779,227.666 311.085,173.002 251.588,179.28 				"/>
			</g>
		</g>
	</g>
</g>
<g opacity="0.05">
	<g>
		<g>
			
				<image overflow="visible" opacity="0.3" enable-background="new    " width="70" height="70" xlink:href="6A858819FC68E42C.png"  transform="matrix(0.9857 0 0 0.9857 894.9131 389.9121)">
			</image>
			<g>
				<path fill="#5393AA" d="M956.188,422.301c0,15.769-12.775,28.538-28.538,28.538c-15.761,0-28.542-12.771-28.542-28.538
					c0-15.76,12.781-28.536,28.542-28.536C943.411,393.765,956.188,406.541,956.188,422.301z"/>
			</g>
		</g>
		<g>
			<g>
				<g>
					<path fill="#FFFFFF" d="M936.819,421.535l4.443,0.917c0,0-2.312-1.475-2.847-5.704c-0.457-3.646,0.803-4.846,0.803-4.846
						l-4.425-0.91c0,0-1.178,1.472-0.799,4.846C934.464,420.062,936.819,421.535,936.819,421.535z"/>
					<g>
						<g>
							<path fill="#FFFFFF" d="M932.987,416.608c-2.189,2.688-4.334,3.238-4.334,3.238l4.509,0.935c0,0,0.466-0.075,1.153-0.412
								C933.76,419.466,933.254,418.229,932.987,416.608z"/>
						</g>
						<g>
							<path fill="#FFFFFF" d="M933.996,415.838c0.196,1.786,0.731,3.055,1.284,3.954c0.857-0.609,1.853-1.578,2.733-3.129
								c0.135-0.238,0.234-0.456,0.344-0.679c-0.189-2.898,0.759-3.975,0.843-4.062c0-0.002-0.003-0.021-0.003-0.021l-4.324-0.896
								l-0.078-0.016c0,0-0.011,0.016-0.012,0.018c0.059,0.109,0.647,1.389-0.833,4.124
								C933.963,415.365,933.967,415.585,933.996,415.838z"/>
						</g>
					</g>
					<path fill="#FFFFFF" d="M928.409,419.801l4.443,0.921c0,0-2.318-1.478-2.849-5.708c-0.455-3.645,0.801-4.845,0.801-4.845
						l-4.423-0.913c0,0-1.176,1.478-0.802,4.843C926.053,418.326,928.409,419.801,928.409,419.801z"/>
					<g>
						<g>
							<path fill="#FFFFFF" d="M925.581,414.099c0.199,1.786,0.735,3.059,1.289,3.956c0.855-0.607,1.85-1.576,2.73-3.126
								c0.136-0.237,0.236-0.456,0.346-0.681c-0.188-2.882,0.747-3.959,0.841-4.057c-0.002-0.006-0.005-0.022-0.005-0.022
								l-4.401-0.911c0,0-0.009,0.013-0.012,0.017c0.055,0.098,0.656,1.371-0.831,4.124
								C925.549,413.629,925.553,413.848,925.581,414.099z"/>
						</g>
						<g>
							<path fill="#FFFFFF" d="M924.574,414.872c-2.189,2.688-4.456,3.217-4.456,3.217l4.63,0.956c0,0,0.466-0.075,1.156-0.412
								C925.35,417.729,924.842,416.491,924.574,414.872z"/>
						</g>
					</g>
					<path fill="#FFFFFF" d="M920.118,418.089l4.443,0.919c0,0-2.319-1.475-2.849-5.705c-0.459-3.646,0.799-4.843,0.799-4.843
						l-4.421-0.913c0,0-1.176,1.476-0.805,4.846C917.762,416.618,920.118,418.089,920.118,418.089z"/>
				</g>
				<g>
					<g>
						<path fill="#FFFFFF" d="M917.287,412.393c0.201,1.786,0.738,3.057,1.291,3.954c0.857-0.607,1.851-1.577,2.729-3.126
							c0.137-0.239,0.237-0.458,0.347-0.682c-0.188-2.871,0.736-3.952,0.839-4.056c-0.001-0.007-0.006-0.026-0.006-0.026
							l-4.396-0.909c0,0-0.012,0.017-0.015,0.02c0.063,0.12,0.645,1.396-0.833,4.125
							C917.256,411.921,917.259,412.14,917.287,412.393z"/>
					</g>
					<g>
						<path fill="#FFFFFF" d="M916.28,413.166c-2.188,2.684-5.206,3.061-5.206,3.061l5.383,1.11c0,0,0.467-0.075,1.156-0.412
							C917.059,416.021,916.549,414.785,916.28,413.166z"/>
					</g>
				</g>
			</g>
			<g>
				<g>
					<path fill="#FFFFFF" d="M934.663,434.347l4.534,0.154c0,0-2.532-1.061-3.77-5.143c-1.062-3.517-0.025-4.907-0.025-4.907
						l-4.513-0.155c0,0-0.913,1.649,0.024,4.909C932.091,433.294,934.663,434.347,934.663,434.347z"/>
					<g>
						<g>
							<path fill="#FFFFFF" d="M930.915,429.205c0.496,1.726,1.239,2.888,1.936,3.681c0.743-0.745,1.562-1.866,2.169-3.541
								c0.094-0.257,0.154-0.484,0.224-0.722c-0.67-2.809,0.065-4.032,0.145-4.146c-0.002-0.008-0.01-0.024-0.01-0.024l-4.486-0.155
								c0,0-0.008,0.02-0.01,0.022c0.087,0.112,0.863,1.272-0.129,4.196C930.804,428.743,930.845,428.959,930.915,429.205z"/>
						</g>
						<g>
							<path fill="#FFFFFF" d="M930.038,430.16c-1.707,3.001-3.28,3.938-3.28,3.938l4.171,0.117c0,0,0.44-0.147,1.061-0.594
								C931.29,432.825,930.571,431.704,930.038,430.16z"/>
						</g>
					</g>
					<path fill="#FFFFFF" d="M926.08,434.056l4.534,0.155c0,0-2.531-1.062-3.771-5.148c-1.062-3.513-0.024-4.905-0.024-4.905
						l-4.513-0.154c0,0-0.911,1.652,0.025,4.909C923.506,433.002,926.08,434.056,926.08,434.056z"/>
					<g>
						<g>
							<path fill="#FFFFFF" d="M922.332,428.911c0.496,1.728,1.24,2.891,1.936,3.685c0.743-0.744,1.562-1.867,2.169-3.544
								c0.094-0.256,0.154-0.485,0.226-0.724c-0.673-2.809,0.061-4.029,0.141-4.146c-0.001-0.005-0.01-0.024-0.01-0.024
								l-4.485-0.154c0,0-0.009,0.019-0.011,0.021c0.081,0.104,0.872,1.26-0.127,4.199
								C922.221,428.448,922.262,428.667,922.332,428.911z"/>
						</g>
						<g>
							<path fill="#FFFFFF" d="M921.454,429.867c-1.705,2.999-3.179,3.932-3.179,3.932l4.071,0.132c0,0,0.441-0.15,1.06-0.597
								C922.71,432.536,921.988,431.414,921.454,429.867z"/>
						</g>
					</g>
					<path fill="#FFFFFF" d="M917.621,433.768l4.535,0.154c0,0-2.535-1.061-3.772-5.146c-1.067-3.517-0.026-4.905-0.026-4.905
						l-4.516-0.157c0,0-0.906,1.651,0.029,4.912C915.05,432.715,917.621,433.768,917.621,433.768z"/>
				</g>
			</g>
			<path fill="none" stroke="#FFFFFF" stroke-width="0.8841" stroke-miterlimit="10" d="M939.013,421.365
				c0,0,4.618,2.027,7.687,0.66c3.69-1.646,3.773,6.662-0.316,9.488c-6.001,4.146-10.557,2.008-10.557,2.008"/>
			<g>
				<g>
					<path fill="#FFFFFF" d="M913.871,428.625c0.498,1.727,1.239,2.887,1.936,3.682c0.742-0.744,1.558-1.868,2.165-3.544
						c0.095-0.257,0.155-0.487,0.226-0.725c-0.68-2.836,0.081-4.054,0.146-4.148c-0.002-0.003-0.009-0.02-0.009-0.02l-4.493-0.157
						c0,0-0.006,0.016-0.008,0.019c0.067,0.085,0.879,1.238-0.126,4.2C913.758,428.158,913.8,428.378,913.871,428.625z"/>
				</g>
				<g>
					<path fill="#FFFFFF" d="M912.993,429.576c-1.706,3.005-4.605,3.875-4.605,3.875l5.499,0.188c0,0,0.442-0.148,1.062-0.595
						C914.249,432.247,913.527,431.125,912.993,429.576z"/>
				</g>
			</g>
		</g>
	</g>
	<g>
		<g>
			
				<image overflow="visible" opacity="0.3" enable-background="new    " width="94" height="94" xlink:href="6A858819FC68E424.png"  transform="matrix(0.9894 0 0 0.9894 753.9141 470.9131)">
			</image>
			<g>
				<circle fill="#477C93" cx="797.895" cy="515.355" r="40.424"/>
			</g>
		</g>
		<g>
			<polygon fill="none" stroke="#FFFFFF" stroke-width="2.8704" stroke-miterlimit="10" points="784.675,529.184 779.427,520.094 
				784.675,511.007 795.169,511.007 800.415,520.094 795.169,529.184 			"/>
			<polygon fill="none" stroke="#FFFFFF" stroke-width="2.8704" stroke-miterlimit="10" points="800.326,519.903 795.075,510.812 
				800.326,501.723 810.826,501.723 816.073,510.812 810.826,519.903 			"/>
			<path fill="#FFFFFF" d="M800.378,495.916c0,1.975-1.6,3.579-3.576,3.579c-1.98,0-3.585-1.604-3.585-3.579
				c0-1.986,1.604-3.591,3.585-3.591C798.778,492.325,800.378,493.93,800.378,495.916z"/>
			<path fill="#FFFFFF" d="M817.771,525.731c0,1.973-1.604,3.572-3.578,3.572c-1.981,0-3.583-1.601-3.583-3.572
				c0-1.979,1.602-3.59,3.583-3.59C816.167,522.143,817.771,523.752,817.771,525.731z"/>
			
				<line fill="none" stroke="#FFFFFF" stroke-width="2.8704" stroke-miterlimit="10" x1="797.005" y1="496.072" x2="800.302" y2="501.791"/>
			
				<line fill="none" stroke="#FFFFFF" stroke-width="2.8704" stroke-miterlimit="10" x1="811.036" y1="520.041" x2="814.331" y2="525.761"/>
			<path fill="#FFFFFF" d="M784.601,505.263c0,1.982-1.604,3.588-3.585,3.588c-1.978,0-3.581-1.604-3.581-3.588
				c0-1.979,1.604-3.58,3.581-3.58C782.996,501.683,784.601,503.284,784.601,505.263z"/>
			<path fill="#FFFFFF" d="M801.989,535.081c0,1.977-1.606,3.585-3.589,3.585c-1.972,0-3.58-1.608-3.58-3.585
				c0-1.98,1.608-3.581,3.58-3.581C800.383,531.5,801.989,533.101,801.989,535.081z"/>
			
				<line fill="none" stroke="#FFFFFF" stroke-width="2.8704" stroke-miterlimit="10" x1="781.226" y1="505.425" x2="784.516" y2="511.145"/>
			<path fill="#FFFFFF" d="M774.525,516.975c1.711,0.99,2.299,3.181,1.308,4.895c-0.985,1.714-3.175,2.296-4.886,1.312
				c-1.71-0.989-2.303-3.185-1.312-4.898C770.623,516.568,772.816,515.98,774.525,516.975z"/>
			
				<line fill="none" stroke="#FFFFFF" stroke-width="2.8704" stroke-miterlimit="10" x1="772.983" y1="519.973" x2="779.573" y2="519.98"/>
			<g>
				<path fill="#FFFFFF" d="M779.502,532.077c1.709-0.998,3.902-0.403,4.891,1.31c0.996,1.71,0.406,3.901-1.314,4.896
					c-1.71,0.991-3.897,0.399-4.889-1.312C777.203,535.255,777.789,533.062,779.502,532.077z"/>
				
					<line fill="none" stroke="#FFFFFF" stroke-width="2.8704" stroke-miterlimit="10" x1="781.327" y1="534.915" x2="784.633" y2="529.204"/>
			</g>
			<g>
				<path fill="#FFFFFF" d="M821.261,513.734c-1.714-0.988-2.301-3.178-1.311-4.892c0.992-1.711,3.178-2.302,4.896-1.314
					c1.711,0.991,2.299,3.183,1.307,4.892C825.161,514.137,822.979,514.725,821.261,513.734z"/>
				
					<line fill="none" stroke="#FFFFFF" stroke-width="2.8704" stroke-miterlimit="10" x1="822.805" y1="510.732" x2="816.208" y2="510.732"/>
			</g>
			<g>
				<path fill="#FFFFFF" d="M816.142,498.631c-1.722,0.994-3.908,0.406-4.896-1.308s-0.405-3.903,1.311-4.892
					c1.711-0.989,3.906-0.399,4.893,1.309C818.434,495.449,817.851,497.64,816.142,498.631z"/>
				
					<line fill="none" stroke="#FFFFFF" stroke-width="2.8704" stroke-miterlimit="10" x1="814.311" y1="495.793" x2="811.015" y2="501.504"/>
			</g>
			
				<line fill="none" stroke="#FFFFFF" stroke-width="2.8704" stroke-miterlimit="10" x1="795.252" y1="529.394" x2="798.549" y2="535.113"/>
		</g>
	</g>
	<g>
		<g>
			
				<line fill="none" stroke="#2E5160" stroke-width="30" stroke-miterlimit="10" x1="834.821" y1="488.008" x2="866.95" y2="464.642"/>
			<g>
				<polygon fill="#2E5160" points="877.466,493.983 901.771,439.319 842.275,445.597 				"/>
			</g>
		</g>
	</g>
</g>
<g opacity="0.05">
	<g>
		<g>
			
				<image overflow="visible" opacity="0.3" enable-background="new    " width="60" height="59" xlink:href="6A858819FC68E425.png"  transform="matrix(0.9833 0 0 0.983 320.9131 410.9141)">
			</image>
			<g>
				<path fill="#5393AA" d="M371.521,437.929c0,12.858-10.418,23.272-23.272,23.272c-12.852,0-23.276-10.414-23.276-23.272
					c0-12.852,10.424-23.271,23.276-23.271C361.104,414.658,371.521,425.077,371.521,437.929z"/>
			</g>
		</g>
		<g>
			<g>
				<g>
					<path fill="#FFFFFF" d="M355.728,437.305l3.625,0.748c0,0-1.885-1.202-2.321-4.651c-0.373-2.974,0.654-3.951,0.654-3.951
						l-3.608-0.742c0,0-0.96,1.2-0.651,3.951C353.807,436.104,355.728,437.305,355.728,437.305z"/>
					<g>
						<g>
							<path fill="#FFFFFF" d="M352.603,433.287c-1.785,2.19-3.534,2.642-3.534,2.642l3.677,0.762c0,0,0.38-0.062,0.941-0.337
								C353.233,435.617,352.82,434.608,352.603,433.287z"/>
						</g>
						<g>
							<path fill="#FFFFFF" d="M353.425,432.658c0.16,1.457,0.597,2.491,1.047,3.225c0.7-0.497,1.511-1.287,2.23-2.552
								c0.109-0.194,0.191-0.371,0.279-0.553c-0.154-2.364,0.619-3.241,0.688-3.312c0-0.002-0.002-0.017-0.002-0.017l-3.526-0.729
								l-0.064-0.013c0,0-0.009,0.013-0.009,0.014c0.048,0.09,0.529,1.132-0.679,3.363
								C353.398,432.273,353.401,432.452,353.425,432.658z"/>
						</g>
					</g>
					<path fill="#FFFFFF" d="M348.869,435.891l3.625,0.751c0,0-1.892-1.204-2.323-4.654c-0.371-2.973,0.653-3.951,0.653-3.951
						l-3.607-0.744c0,0-0.959,1.204-0.654,3.949C346.948,434.688,348.869,435.891,348.869,435.891z"/>
					<g>
						<g>
							<path fill="#FFFFFF" d="M346.563,431.24c0.163,1.456,0.6,2.493,1.051,3.226c0.698-0.496,1.508-1.285,2.228-2.549
								c0.11-0.194,0.192-0.372,0.281-0.555c-0.152-2.352,0.609-3.229,0.686-3.31c-0.001-0.004-0.004-0.019-0.004-0.019
								l-3.589-0.742c0,0-0.007,0.01-0.01,0.013c0.045,0.079,0.535,1.118-0.678,3.362
								C346.537,430.857,346.54,431.035,346.563,431.24z"/>
						</g>
						<g>
							<path fill="#FFFFFF" d="M345.742,431.871c-1.786,2.191-3.634,2.623-3.634,2.623l3.776,0.779c0,0,0.38-0.062,0.943-0.337
								C346.375,434.2,345.96,433.191,345.742,431.871z"/>
						</g>
					</g>
					<path fill="#FFFFFF" d="M342.108,434.494l3.625,0.749c0,0-1.892-1.202-2.323-4.652c-0.374-2.973,0.652-3.949,0.652-3.949
						l-3.605-0.743c0,0-0.959,1.201-0.656,3.95C340.187,433.295,342.108,434.494,342.108,434.494z"/>
				</g>
				<g>
					<g>
						<path fill="#FFFFFF" d="M339.799,429.849c0.164,1.457,0.602,2.492,1.053,3.226c0.7-0.496,1.509-1.286,2.227-2.549
							c0.11-0.196,0.193-0.374,0.282-0.557c-0.152-2.342,0.601-3.224,0.684-3.308c-0.001-0.005-0.005-0.021-0.005-0.021l-3.584-0.74
							c0,0-0.009,0.013-0.012,0.015c0.052,0.098,0.525,1.14-0.68,3.364C339.774,429.464,339.776,429.643,339.799,429.849z"/>
					</g>
					<g>
						<path fill="#FFFFFF" d="M338.979,430.479c-1.785,2.188-4.246,2.496-4.246,2.496l4.39,0.905c0,0,0.38-0.062,0.943-0.336
							C339.613,432.808,339.197,431.8,338.979,430.479z"/>
					</g>
				</g>
			</g>
			<g>
				<g>
					<path fill="#FFFFFF" d="M353.969,447.752l3.698,0.126c0,0-2.065-0.864-3.073-4.193c-0.867-2.866-0.021-4.002-0.021-4.002
						l-3.679-0.127c0,0-0.745,1.347,0.02,4.004C351.872,446.894,353.969,447.752,353.969,447.752z"/>
					<g>
						<g>
							<path fill="#FFFFFF" d="M350.913,443.56c0.404,1.407,1.01,2.354,1.578,3.001c0.606-0.606,1.272-1.521,1.769-2.888
								c0.076-0.209,0.126-0.396,0.182-0.588c-0.546-2.291,0.054-3.288,0.118-3.382c-0.002-0.006-0.008-0.021-0.008-0.021
								l-3.658-0.127c0,0-0.006,0.017-0.008,0.02c0.071,0.093,0.704,1.038-0.105,3.423
								C350.822,443.183,350.855,443.358,350.913,443.56z"/>
						</g>
						<g>
							<path fill="#FFFFFF" d="M350.198,444.338c-1.392,2.447-2.675,3.212-2.675,3.212l3.401,0.097c0,0,0.359-0.121,0.864-0.484
								C351.219,446.512,350.632,445.598,350.198,444.338z"/>
						</g>
					</g>
					<path fill="#FFFFFF" d="M346.97,447.515l3.698,0.127c0,0-2.064-0.865-3.075-4.197c-0.867-2.865-0.021-4.001-0.021-4.001
						l-3.68-0.126c0,0-0.743,1.348,0.021,4.003C344.871,446.655,346.97,447.515,346.97,447.515z"/>
					<g>
						<g>
							<path fill="#FFFFFF" d="M343.914,443.319c0.404,1.408,1.011,2.356,1.578,3.005c0.606-0.606,1.273-1.522,1.769-2.891
								c0.076-0.209,0.126-0.396,0.183-0.591c-0.549-2.289,0.049-3.285,0.115-3.381c-0.001-0.004-0.008-0.021-0.008-0.021
								l-3.658-0.126c0,0-0.007,0.014-0.009,0.018c0.066,0.084,0.711,1.027-0.104,3.425
								C343.823,442.942,343.856,443.12,343.914,443.319z"/>
						</g>
						<g>
							<path fill="#FFFFFF" d="M343.198,444.1c-1.391,2.445-2.592,3.206-2.592,3.206l3.321,0.107c0,0,0.36-0.124,0.863-0.486
								C344.222,446.275,343.633,445.36,343.198,444.1z"/>
						</g>
					</g>
					<path fill="#FFFFFF" d="M340.072,447.28l3.698,0.126c0,0-2.067-0.865-3.076-4.197c-0.872-2.867-0.022-4-0.022-4l-3.682-0.129
						c0,0-0.739,1.347,0.024,4.006C337.975,446.422,340.072,447.28,340.072,447.28z"/>
				</g>
			</g>
			<path fill="none" stroke="#FFFFFF" stroke-width="0.8841" stroke-miterlimit="10" d="M357.517,437.166
				c0,0,3.766,1.654,6.267,0.538c3.01-1.343,3.078,5.434-0.258,7.738c-4.894,3.382-8.609,1.637-8.609,1.637"/>
			<g>
				<g>
					<path fill="#FFFFFF" d="M337.014,443.086c0.406,1.408,1.011,2.354,1.579,3.003c0.605-0.607,1.269-1.523,1.765-2.891
						c0.077-0.209,0.127-0.397,0.184-0.591c-0.554-2.312,0.066-3.307,0.12-3.384c-0.001-0.002-0.007-0.016-0.007-0.016l-3.664-0.129
						c0,0-0.005,0.013-0.006,0.015c0.055,0.069,0.717,1.012-0.103,3.426C336.921,442.705,336.956,442.885,337.014,443.086z"/>
				</g>
				<g>
					<path fill="#FFFFFF" d="M336.298,443.862c-1.392,2.45-3.756,3.159-3.756,3.159l4.484,0.152c0,0,0.361-0.122,0.865-0.484
						C337.322,446.04,336.733,445.125,336.298,443.862z"/>
				</g>
			</g>
		</g>
	</g>
	<g>
		<g>
			
				<image overflow="visible" opacity="0.3" enable-background="new    " width="79" height="79" xlink:href="6A858819FC68E422.png"  transform="matrix(0.9873 0 0 0.9873 205.9131 476.9121)">
			</image>
			<g>
				<circle fill="#477C93" cx="242.436" cy="513.814" r="32.966"/>
			</g>
		</g>
		<g>
			<polygon fill="none" stroke="#FFFFFF" stroke-width="2.8704" stroke-miterlimit="10" points="231.655,525.091 227.375,517.678 
				231.655,510.268 240.213,510.268 244.491,517.678 240.213,525.091 			"/>
			<polygon fill="none" stroke="#FFFFFF" stroke-width="2.8704" stroke-miterlimit="10" points="244.419,517.521 240.137,510.109 
				244.419,502.696 252.981,502.696 257.261,510.109 252.981,517.521 			"/>
			<path fill="#FFFFFF" d="M244.461,497.961c0,1.61-1.304,2.919-2.916,2.919c-1.616,0-2.924-1.309-2.924-2.919
				c0-1.619,1.308-2.928,2.924-2.928C243.157,495.033,244.461,496.342,244.461,497.961z"/>
			<path fill="#FFFFFF" d="M258.646,522.275c0,1.608-1.309,2.914-2.918,2.914c-1.616,0-2.922-1.306-2.922-2.914
				c0-1.614,1.306-2.928,2.922-2.928C257.337,519.349,258.646,520.661,258.646,522.275z"/>
			
				<line fill="none" stroke="#FFFFFF" stroke-width="2.8704" stroke-miterlimit="10" x1="241.71" y1="498.089" x2="244.399" y2="502.752"/>
			
				<line fill="none" stroke="#FFFFFF" stroke-width="2.8704" stroke-miterlimit="10" x1="253.153" y1="517.635" x2="255.84" y2="522.3"/>
			<path fill="#FFFFFF" d="M231.595,505.584c0,1.616-1.308,2.926-2.923,2.926c-1.613,0-2.92-1.31-2.92-2.926
				c0-1.614,1.308-2.92,2.92-2.92C230.287,502.664,231.595,503.97,231.595,505.584z"/>
			<path fill="#FFFFFF" d="M245.775,529.9c0,1.61-1.31,2.923-2.927,2.923c-1.607,0-2.92-1.312-2.92-2.923
				c0-1.615,1.312-2.922,2.92-2.922C244.465,526.979,245.775,528.285,245.775,529.9z"/>
			
				<line fill="none" stroke="#FFFFFF" stroke-width="2.8704" stroke-miterlimit="10" x1="228.843" y1="505.716" x2="231.525" y2="510.38"/>
			<path fill="#FFFFFF" d="M223.378,515.135c1.396,0.809,1.875,2.594,1.066,3.99c-0.803,1.396-2.589,1.872-3.984,1.071
				c-1.395-0.809-1.877-2.598-1.07-3.995C220.196,514.803,221.985,514.324,223.378,515.135z"/>
			
				<line fill="none" stroke="#FFFFFF" stroke-width="2.8704" stroke-miterlimit="10" x1="222.121" y1="517.579" x2="227.495" y2="517.586"/>
			<g>
				<path fill="#FFFFFF" d="M227.437,527.45c1.394-0.813,3.182-0.329,3.988,1.067c0.812,1.396,0.331,3.183-1.073,3.991
					c-1.395,0.81-3.178,0.326-3.987-1.069C225.562,530.042,226.04,528.255,227.437,527.45z"/>
				
					<line fill="none" stroke="#FFFFFF" stroke-width="2.8704" stroke-miterlimit="10" x1="228.925" y1="529.765" x2="231.621" y2="525.107"/>
			</g>
			<g>
				<path fill="#FFFFFF" d="M261.491,512.492c-1.397-0.807-1.876-2.591-1.069-3.988c0.81-1.396,2.592-1.877,3.993-1.072
					c1.395,0.81,1.875,2.596,1.064,3.988C264.671,512.82,262.892,513.3,261.491,512.492z"/>
				
					<line fill="none" stroke="#FFFFFF" stroke-width="2.8704" stroke-miterlimit="10" x1="262.75" y1="510.044" x2="257.371" y2="510.044"/>
			</g>
			<g>
				<path fill="#FFFFFF" d="M257.316,500.176c-1.404,0.812-3.188,0.331-3.992-1.065c-0.805-1.398-0.331-3.185,1.068-3.988
					c1.396-0.808,3.186-0.327,3.989,1.065C259.184,497.581,258.71,499.367,257.316,500.176z"/>
				
					<line fill="none" stroke="#FFFFFF" stroke-width="2.8704" stroke-miterlimit="10" x1="255.823" y1="497.861" x2="253.135" y2="502.519"/>
			</g>
			
				<line fill="none" stroke="#FFFFFF" stroke-width="2.8704" stroke-miterlimit="10" x1="240.281" y1="525.262" x2="242.97" y2="529.927"/>
		</g>
	</g>
	<g>
		<g>
			
				<line fill="none" stroke="#2E5160" stroke-width="30" stroke-miterlimit="10" x1="272.549" y1="491.513" x2="292.326" y2="477.13"/>
			<g>
				<polygon fill="#2E5160" points="302.841,506.472 327.146,451.808 267.65,458.085 				"/>
			</g>
		</g>
	</g>
</g>
<g opacity="0.03">
	<g>
		<g>
			
				<image overflow="visible" opacity="0.3" enable-background="new    " width="60" height="59" xlink:href="6A858819FC68E423.png"  transform="matrix(0.9833 0 0 0.983 204.9131 -0.0869)">
			</image>
			<g>
				<path fill="#5393AA" d="M255.521,26.929c0,12.858-10.418,23.272-23.272,23.272c-12.852,0-23.276-10.414-23.276-23.272
					c0-12.852,10.424-23.271,23.276-23.271C245.104,3.658,255.521,14.077,255.521,26.929z"/>
			</g>
		</g>
		<g>
			<g>
				<g>
					<path fill="#FFFFFF" d="M239.728,26.305l3.625,0.748c0,0-1.885-1.202-2.321-4.652c-0.373-2.973,0.654-3.951,0.654-3.951
						l-3.608-0.742c0,0-0.96,1.2-0.651,3.951C237.807,25.104,239.728,26.305,239.728,26.305z"/>
					<g>
						<g>
							<path fill="#FFFFFF" d="M236.603,22.287c-1.785,2.191-3.534,2.642-3.534,2.642l3.677,0.761c0,0,0.38-0.061,0.941-0.336
								C237.233,24.617,236.82,23.608,236.603,22.287z"/>
						</g>
						<g>
							<path fill="#FFFFFF" d="M237.425,21.658c0.16,1.457,0.597,2.491,1.047,3.225c0.7-0.497,1.511-1.287,2.23-2.552
								c0.109-0.194,0.191-0.371,0.279-0.553c-0.154-2.364,0.619-3.241,0.688-3.312c0-0.002-0.002-0.017-0.002-0.017l-3.526-0.729
								l-0.064-0.013c0,0-0.009,0.013-0.009,0.014c0.048,0.09,0.529,1.132-0.679,3.363
								C237.398,21.273,237.401,21.452,237.425,21.658z"/>
						</g>
					</g>
					<path fill="#FFFFFF" d="M232.869,24.891l3.625,0.751c0,0-1.892-1.205-2.323-4.655c-0.371-2.972,0.653-3.951,0.653-3.951
						l-3.607-0.744c0,0-0.959,1.204-0.654,3.949C230.948,23.688,232.869,24.891,232.869,24.891z"/>
					<g>
						<g>
							<path fill="#FFFFFF" d="M230.563,20.24c0.163,1.456,0.6,2.493,1.051,3.226c0.698-0.496,1.508-1.285,2.228-2.549
								c0.11-0.194,0.192-0.372,0.281-0.555c-0.152-2.351,0.609-3.229,0.686-3.309c-0.001-0.004-0.004-0.019-0.004-0.019
								l-3.589-0.742c0,0-0.007,0.01-0.01,0.013c0.045,0.079,0.535,1.118-0.678,3.362C230.537,19.857,230.54,20.035,230.563,20.24z"
								/>
						</g>
						<g>
							<path fill="#FFFFFF" d="M229.742,20.871c-1.786,2.191-3.634,2.623-3.634,2.623l3.776,0.779c0,0,0.38-0.061,0.943-0.336
								C230.375,23.2,229.96,22.191,229.742,20.871z"/>
						</g>
					</g>
					<path fill="#FFFFFF" d="M226.108,23.494l3.625,0.749c0,0-1.892-1.202-2.323-4.652c-0.374-2.973,0.652-3.949,0.652-3.949
						l-3.605-0.744c0,0-0.959,1.202-0.656,3.951C224.187,22.295,226.108,23.494,226.108,23.494z"/>
				</g>
				<g>
					<g>
						<path fill="#FFFFFF" d="M223.799,18.849c0.164,1.457,0.602,2.492,1.053,3.225c0.7-0.496,1.509-1.286,2.227-2.549
							c0.11-0.196,0.193-0.374,0.282-0.556c-0.152-2.342,0.601-3.224,0.684-3.308c-0.001-0.005-0.005-0.021-0.005-0.021
							l-3.584-0.741c0,0-0.009,0.013-0.012,0.015c0.052,0.098,0.525,1.14-0.68,3.364C223.774,18.464,223.776,18.643,223.799,18.849z
							"/>
					</g>
					<g>
						<path fill="#FFFFFF" d="M222.979,19.479c-1.785,2.188-4.246,2.496-4.246,2.496l4.39,0.905c0,0,0.38-0.062,0.943-0.336
							C223.613,21.808,223.197,20.8,222.979,19.479z"/>
					</g>
				</g>
			</g>
			<g>
				<g>
					<path fill="#FFFFFF" d="M237.969,36.752l3.698,0.126c0,0-2.065-0.864-3.073-4.193c-0.867-2.867-0.021-4.002-0.021-4.002
						l-3.679-0.127c0,0-0.745,1.346,0.02,4.004C235.872,35.894,237.969,36.752,237.969,36.752z"/>
					<g>
						<g>
							<path fill="#FFFFFF" d="M234.913,32.56c0.404,1.407,1.01,2.354,1.578,3.001c0.606-0.607,1.272-1.521,1.769-2.888
								c0.076-0.209,0.126-0.396,0.182-0.588c-0.546-2.291,0.054-3.288,0.118-3.382c-0.002-0.006-0.008-0.021-0.008-0.021
								l-3.658-0.127c0,0-0.006,0.016-0.008,0.019c0.071,0.093,0.704,1.038-0.104,3.423
								C234.822,32.183,234.855,32.358,234.913,32.56z"/>
						</g>
						<g>
							<path fill="#FFFFFF" d="M234.198,33.338c-1.392,2.447-2.675,3.212-2.675,3.212l3.401,0.096c0,0,0.359-0.121,0.864-0.484
								C235.219,35.512,234.632,34.598,234.198,33.338z"/>
						</g>
					</g>
					<path fill="#FFFFFF" d="M230.97,36.515l3.698,0.127c0,0-2.064-0.866-3.075-4.198c-0.867-2.865-0.021-4.001-0.021-4.001
						l-3.68-0.126c0,0-0.743,1.348,0.021,4.003C228.871,35.655,230.97,36.515,230.97,36.515z"/>
					<g>
						<g>
							<path fill="#FFFFFF" d="M227.914,32.319c0.404,1.409,1.011,2.357,1.578,3.005c0.606-0.606,1.273-1.522,1.769-2.89
								c0.076-0.209,0.126-0.396,0.183-0.591c-0.549-2.289,0.049-3.285,0.115-3.381c-0.001-0.004-0.008-0.021-0.008-0.021
								l-3.658-0.126c0,0-0.007,0.014-0.009,0.018c0.066,0.084,0.711,1.027-0.104,3.425
								C227.823,31.942,227.856,32.12,227.914,32.319z"/>
						</g>
						<g>
							<path fill="#FFFFFF" d="M227.198,33.1c-1.391,2.445-2.592,3.206-2.592,3.206l3.321,0.107c0,0,0.36-0.124,0.863-0.486
								C228.222,35.275,227.633,34.36,227.198,33.1z"/>
						</g>
					</g>
					<path fill="#FFFFFF" d="M224.072,36.28l3.698,0.126c0,0-2.067-0.865-3.076-4.197c-0.872-2.867-0.022-4-0.022-4l-3.682-0.129
						c0,0-0.739,1.347,0.024,4.006C221.975,35.422,224.072,36.28,224.072,36.28z"/>
				</g>
			</g>
			<path fill="none" stroke="#FFFFFF" stroke-width="0.8841" stroke-miterlimit="10" d="M241.517,26.166
				c0,0,3.766,1.654,6.267,0.538c3.01-1.343,3.078,5.434-0.258,7.738c-4.894,3.382-8.609,1.637-8.609,1.637"/>
			<g>
				<g>
					<path fill="#FFFFFF" d="M221.014,32.086c0.406,1.408,1.011,2.354,1.579,3.003c0.605-0.608,1.269-1.524,1.765-2.891
						c0.077-0.209,0.127-0.397,0.184-0.591c-0.554-2.312,0.066-3.306,0.12-3.383c-0.001-0.002-0.007-0.016-0.007-0.016l-3.664-0.129
						c0,0-0.005,0.013-0.006,0.015c0.055,0.069,0.717,1.011-0.103,3.426C220.921,31.705,220.956,31.885,221.014,32.086z"/>
				</g>
				<g>
					<path fill="#FFFFFF" d="M220.298,32.862c-1.392,2.45-3.756,3.159-3.756,3.159l4.484,0.153c0,0,0.361-0.122,0.865-0.485
						C221.322,35.04,220.733,34.125,220.298,32.862z"/>
				</g>
			</g>
		</g>
	</g>
	<g>
		<g>
			
				<image overflow="visible" opacity="0.3" enable-background="new    " width="79" height="79" xlink:href="6A858819FC68E439.png"  transform="matrix(0.9873 0 0 0.9873 89.9131 65.9131)">
			</image>
			<g>
				<circle fill="#477C93" cx="126.436" cy="102.814" r="32.966"/>
			</g>
		</g>
		<g>
			<polygon fill="none" stroke="#FFFFFF" stroke-width="2.8704" stroke-miterlimit="10" points="115.655,114.091 111.375,106.678 
				115.655,99.268 124.213,99.268 128.491,106.678 124.213,114.091 			"/>
			<polygon fill="none" stroke="#FFFFFF" stroke-width="2.8704" stroke-miterlimit="10" points="128.419,106.522 124.137,99.109 
				128.419,91.696 136.981,91.696 141.261,99.109 136.981,106.522 			"/>
			<path fill="#FFFFFF" d="M128.461,86.961c0,1.61-1.304,2.919-2.916,2.919c-1.616,0-2.924-1.309-2.924-2.919
				c0-1.619,1.308-2.928,2.924-2.928C127.157,84.033,128.461,85.342,128.461,86.961z"/>
			<path fill="#FFFFFF" d="M142.646,111.275c0,1.609-1.309,2.914-2.918,2.914c-1.616,0-2.922-1.305-2.922-2.914
				c0-1.614,1.306-2.927,2.922-2.927C141.337,108.349,142.646,109.661,142.646,111.275z"/>
			
				<line fill="none" stroke="#FFFFFF" stroke-width="2.8704" stroke-miterlimit="10" x1="125.71" y1="87.089" x2="128.399" y2="91.752"/>
			
				<line fill="none" stroke="#FFFFFF" stroke-width="2.8704" stroke-miterlimit="10" x1="137.153" y1="106.635" x2="139.84" y2="111.3"/>
			<path fill="#FFFFFF" d="M115.595,94.584c0,1.616-1.308,2.926-2.923,2.926c-1.613,0-2.92-1.31-2.92-2.926
				c0-1.614,1.308-2.92,2.92-2.92C114.287,91.664,115.595,92.97,115.595,94.584z"/>
			<path fill="#FFFFFF" d="M129.775,118.9c0,1.611-1.31,2.923-2.927,2.923c-1.607,0-2.92-1.312-2.92-2.923
				c0-1.615,1.312-2.921,2.92-2.921C128.465,115.979,129.775,117.285,129.775,118.9z"/>
			
				<line fill="none" stroke="#FFFFFF" stroke-width="2.8704" stroke-miterlimit="10" x1="112.843" y1="94.716" x2="115.525" y2="99.38"/>
			<path fill="#FFFFFF" d="M107.378,104.135c1.396,0.808,1.875,2.593,1.066,3.99c-0.803,1.397-2.589,1.872-3.984,1.071
				c-1.395-0.808-1.877-2.597-1.07-3.995C104.196,103.803,105.985,103.324,107.378,104.135z"/>
			
				<line fill="none" stroke="#FFFFFF" stroke-width="2.8704" stroke-miterlimit="10" x1="106.121" y1="106.579" x2="111.495" y2="106.586"/>
			<g>
				<path fill="#FFFFFF" d="M111.437,116.45c1.394-0.813,3.182-0.329,3.988,1.068c0.812,1.395,0.331,3.182-1.073,3.991
					c-1.395,0.809-3.178,0.326-3.987-1.07C109.562,119.042,110.04,117.255,111.437,116.45z"/>
				
					<line fill="none" stroke="#FFFFFF" stroke-width="2.8704" stroke-miterlimit="10" x1="112.925" y1="118.765" x2="115.621" y2="114.107"/>
			</g>
			<g>
				<path fill="#FFFFFF" d="M145.491,101.492c-1.397-0.806-1.876-2.591-1.069-3.988c0.81-1.396,2.592-1.877,3.993-1.072
					c1.395,0.809,1.875,2.595,1.064,3.988C148.671,101.82,146.892,102.3,145.491,101.492z"/>
				
					<line fill="none" stroke="#FFFFFF" stroke-width="2.8704" stroke-miterlimit="10" x1="146.75" y1="99.044" x2="141.371" y2="99.044"/>
			</g>
			<g>
				<path fill="#FFFFFF" d="M141.316,89.176c-1.404,0.811-3.188,0.331-3.992-1.066c-0.805-1.398-0.331-3.184,1.068-3.988
					c1.396-0.808,3.186-0.327,3.989,1.066C143.184,86.581,142.71,88.367,141.316,89.176z"/>
				
					<line fill="none" stroke="#FFFFFF" stroke-width="2.8704" stroke-miterlimit="10" x1="139.823" y1="86.861" x2="137.135" y2="91.519"/>
			</g>
			
				<line fill="none" stroke="#FFFFFF" stroke-width="2.8704" stroke-miterlimit="10" x1="124.281" y1="114.262" x2="126.97" y2="118.927"/>
		</g>
	</g>
	<g>
		<g>
			
				<line fill="none" stroke="#2E5160" stroke-width="30" stroke-miterlimit="10" x1="156.549" y1="80.513" x2="176.326" y2="66.13"/>
			<g>
				<polygon fill="#2E5160" points="186.841,95.472 211.147,40.808 151.65,47.085 				"/>
			</g>
		</g>
	</g>
</g>
<g opacity="0.06">
	<g>
		<g>
			
				<image overflow="visible" opacity="0.3" enable-background="new    " width="164" height="164" xlink:href="6A858819FC68E43A.png"  transform="matrix(0.9939 0 0 0.9939 797.9131 2.9131)">
			</image>
			<g>
				<path fill="#5393AA" d="M953.188,82.526c0,41.734-33.814,75.538-75.538,75.538c-41.712,0-75.547-33.803-75.547-75.538
					c0-41.713,33.834-75.53,75.547-75.53C919.372,6.996,953.188,40.813,953.188,82.526z"/>
			</g>
		</g>
		<g>
			<g>
				<g>
					<path fill="#FFFFFF" d="M901.924,80.5l11.764,2.428c0,0-6.116-3.901-7.533-15.099c-1.212-9.649,2.123-12.825,2.123-12.825
						l-11.711-2.409c0,0-3.116,3.896-2.115,12.825C895.689,76.603,901.924,80.5,901.924,80.5z"/>
					<g>
						<g>
							<path fill="#FFFFFF" d="M891.78,67.46c-5.793,7.115-11.472,8.575-11.472,8.575l11.937,2.47c0,0,1.23-0.198,3.051-1.09
								C893.826,75.024,892.486,71.75,891.78,67.46z"/>
						</g>
						<g>
							<path fill="#FFFFFF" d="M894.45,65.421c0.521,4.728,1.939,8.085,3.398,10.466c2.273-1.612,4.904-4.177,7.239-8.282
								c0.354-0.63,0.619-1.208,0.906-1.796c-0.503-7.673,2.008-10.52,2.229-10.752c0-0.005-0.007-0.052-0.007-0.052l-11.445-2.37
								l-0.207-0.039c0,0-0.027,0.039-0.03,0.045c0.153,0.291,1.715,3.672-2.205,10.916
								C894.363,64.171,894.374,64.752,894.45,65.421z"/>
						</g>
					</g>
					<path fill="#FFFFFF" d="M879.664,75.91l11.765,2.438c0,0-6.141-3.91-7.541-15.108c-1.205-9.647,2.118-12.823,2.118-12.823
						L874.299,48c0,0-3.111,3.909-2.122,12.817C873.426,72.007,879.664,75.91,879.664,75.91z"/>
					<g>
						<g>
							<path fill="#FFFFFF" d="M872.177,60.817c0.528,4.729,1.947,8.093,3.413,10.473c2.268-1.611,4.896-4.173,7.229-8.274
								c0.355-0.631,0.625-1.209,0.913-1.802c-0.495-7.628,1.976-10.48,2.224-10.738c-0.003-0.014-0.011-0.059-0.011-0.059
								l-11.651-2.411c0,0-0.021,0.032-0.029,0.04c0.145,0.26,1.737,3.633-2.2,10.916C872.094,59.573,872.104,60.152,872.177,60.817
								z"/>
						</g>
						<g>
							<path fill="#FFFFFF" d="M869.514,62.864c-5.796,7.115-11.795,8.516-11.795,8.516l12.253,2.528c0,0,1.233-0.198,3.062-1.089
								C871.564,70.425,870.22,67.15,869.514,62.864z"/>
						</g>
					</g>
					<path fill="#FFFFFF" d="M857.719,71.38l11.763,2.43c0,0-6.143-3.903-7.538-15.101c-1.218-9.647,2.113-12.817,2.113-12.817
						l-11.703-2.417c0,0-3.111,3.903-2.13,12.825C851.479,67.486,857.719,71.38,857.719,71.38z"/>
				</g>
				<g>
					<g>
						<path fill="#FFFFFF" d="M850.224,56.3c0.532,4.729,1.955,8.089,3.417,10.467c2.273-1.611,4.898-4.173,7.229-8.274
							c0.358-0.634,0.628-1.212,0.914-1.803c-0.494-7.601,1.952-10.461,2.221-10.735c-0.003-0.017-0.016-0.07-0.016-0.07
							l-11.636-2.405c0,0-0.029,0.041-0.037,0.048c0.17,0.317,1.707,3.698-2.205,10.917C850.141,55.054,850.15,55.632,850.224,56.3z
							"/>
					</g>
					<g>
						<path fill="#FFFFFF" d="M847.561,58.348c-5.794,7.105-13.778,8.103-13.778,8.103l14.247,2.938c0,0,1.235-0.198,3.06-1.09
							C849.619,65.904,848.271,62.634,847.561,58.348z"/>
					</g>
				</g>
			</g>
			<g>
				<g>
					<path fill="#FFFFFF" d="M896.218,114.412l12.001,0.408c0,0-6.703-2.806-9.977-13.61c-2.813-9.305-0.068-12.989-0.068-12.989
						l-11.94-0.41c0,0-2.417,4.365,0.062,12.991C889.407,111.625,896.218,114.412,896.218,114.412z"/>
					<g>
						<g>
							<path fill="#FFFFFF" d="M886.296,100.801c1.314,4.569,3.279,7.644,5.122,9.744c1.968-1.972,4.131-4.94,5.743-9.374
								c0.245-0.68,0.407-1.284,0.59-1.91c-1.775-7.433,0.173-10.671,0.382-10.976c-0.007-0.02-0.026-0.065-0.026-0.065
								l-11.873-0.41c0,0-0.022,0.047-0.026,0.058c0.23,0.298,2.285,3.371-0.341,11.109
								C886.002,99.578,886.111,100.151,886.296,100.801z"/>
						</g>
						<g>
							<path fill="#FFFFFF" d="M883.974,103.332c-4.517,7.942-8.683,10.423-8.683,10.423l11.04,0.31c0,0,1.166-0.393,2.806-1.571
								C887.29,110.386,885.387,107.417,883.974,103.332z"/>
						</g>
					</g>
					<path fill="#FFFFFF" d="M873.499,113.642l12,0.411c0,0-6.698-2.813-9.979-13.629c-2.813-9.297-0.065-12.984-0.065-12.984
						l-11.944-0.41c0,0-2.41,4.375,0.067,12.993C866.685,110.851,873.499,113.642,873.499,113.642z"/>
					<g>
						<g>
							<path fill="#FFFFFF" d="M863.577,100.023c1.312,4.573,3.282,7.651,5.125,9.754c1.967-1.971,4.128-4.943,5.74-9.38
								c0.245-0.676,0.407-1.288,0.594-1.915c-1.78-7.432,0.161-10.666,0.372-10.977c-0.003-0.013-0.025-0.066-0.025-0.066
								L863.51,87.03c0,0-0.021,0.047-0.027,0.056c0.216,0.274,2.309,3.336-0.336,11.116
								C863.282,98.8,863.392,99.377,863.577,100.023z"/>
						</g>
						<g>
							<path fill="#FFFFFF" d="M861.254,102.554c-4.513,7.938-8.414,10.408-8.414,10.408l10.779,0.348c0,0,1.169-0.401,2.803-1.579
								C864.578,109.619,862.667,106.651,861.254,102.554z"/>
						</g>
					</g>
					<path fill="#FFFFFF" d="M851.107,112.879l12.005,0.407c0,0-6.71-2.806-9.984-13.622c-2.829-9.305-0.073-12.984-0.073-12.984
						l-11.947-0.415c0,0-2.4,4.369,0.074,13.002C844.302,110.091,851.107,112.879,851.107,112.879z"/>
				</g>
			</g>
			<path fill="none" stroke="#FFFFFF" stroke-width="0.8841" stroke-miterlimit="10" d="M907.729,80.051
				c0,0,12.225,5.368,20.345,1.748c9.77-4.358,9.989,17.635-0.838,25.116c-15.885,10.975-27.942,5.313-27.942,5.313"/>
			<g>
				<g>
					<path fill="#FFFFFF" d="M841.182,99.268c1.319,4.57,3.282,7.64,5.125,9.744c1.965-1.972,4.12-4.948,5.729-9.381
						c0.249-0.68,0.411-1.292,0.596-1.919c-1.798-7.503,0.213-10.727,0.391-10.978c-0.006-0.009-0.022-0.053-0.022-0.053
						l-11.893-0.415c0,0-0.02,0.039-0.023,0.045c0.179,0.225,2.327,3.282-0.331,11.122
						C840.883,98.033,840.993,98.614,841.182,99.268z"/>
				</g>
				<g>
					<path fill="#FFFFFF" d="M838.86,101.783c-4.519,7.953-12.192,10.257-12.192,10.257l14.556,0.499c0,0,1.171-0.396,2.808-1.575
						C842.183,108.853,840.273,105.884,838.86,101.783z"/>
				</g>
			</g>
		</g>
	</g>
	<g>
		<g>
			
				<image overflow="visible" opacity="0.3" enable-background="new    " width="227" height="227" xlink:href="654CABC17B28FA16.png"  transform="matrix(0.9956 0 0 0.9956 422.9121 217.9131)">
			</image>
			<g>
				<path fill="#477C93" d="M641.207,328.832c0,59.1-47.901,106.996-106.998,106.996c-59.092,0-106.999-47.896-106.999-106.996
					c0-59.097,47.907-106.993,106.999-106.993C593.306,221.839,641.207,269.735,641.207,328.832z"/>
			</g>
		</g>
		<g>
			<polygon fill="none" stroke="#FFFFFF" stroke-width="2.8704" stroke-miterlimit="10" points="499.218,365.434 485.326,341.373 
				499.218,317.32 526.994,317.32 540.879,341.373 526.994,365.434 			"/>
			<polygon fill="none" stroke="#FFFFFF" stroke-width="2.8704" stroke-miterlimit="10" points="540.645,340.87 526.744,316.808 
				540.645,292.747 568.436,292.747 582.324,316.808 568.436,340.87 			"/>
			<path fill="#FFFFFF" d="M540.781,277.379c0,5.227-4.234,9.473-9.467,9.473c-5.245,0-9.488-4.246-9.488-9.473
				c0-5.258,4.243-9.506,9.488-9.506C536.547,267.873,540.781,272.121,540.781,277.379z"/>
			<path fill="#FFFFFF" d="M586.822,356.297c0,5.221-4.25,9.457-9.475,9.457c-5.246,0-9.484-4.236-9.484-9.457
				c0-5.242,4.238-9.499,9.484-9.499C582.572,346.798,586.822,351.055,586.822,356.297z"/>
			
				<line fill="none" stroke="#FFFFFF" stroke-width="2.8704" stroke-miterlimit="10" x1="531.854" y1="277.791" x2="540.58" y2="292.93"/>
			
				<line fill="none" stroke="#FFFFFF" stroke-width="2.8704" stroke-miterlimit="10" x1="568.992" y1="341.234" x2="577.713" y2="356.372"/>
			<path fill="#FFFFFF" d="M499.02,302.118c0,5.247-4.246,9.495-9.489,9.495c-5.233,0-9.479-4.248-9.479-9.495
				c0-5.236,4.244-9.478,9.479-9.478C494.771,292.641,499.02,296.882,499.02,302.118z"/>
			<path fill="#FFFFFF" d="M545.046,381.042c0,5.231-4.253,9.489-9.499,9.489c-5.219,0-9.478-4.258-9.478-9.489
				c0-5.242,4.259-9.479,9.478-9.479C540.793,371.562,545.046,375.8,545.046,381.042z"/>
			
				<line fill="none" stroke="#FFFFFF" stroke-width="2.8704" stroke-miterlimit="10" x1="490.086" y1="302.546" x2="498.795" y2="317.686"/>
			<path fill="#FFFFFF" d="M472.352,333.117c4.528,2.62,6.086,8.416,3.461,12.952c-2.607,4.536-8.402,6.077-12.932,3.477
				c-4.525-2.62-6.092-8.429-3.474-12.968C462.021,332.042,467.826,330.484,472.352,333.117z"/>
			
				<line fill="none" stroke="#FFFFFF" stroke-width="2.8704" stroke-miterlimit="10" x1="468.27" y1="341.053" x2="485.713" y2="341.074"/>
			<g>
				<path fill="#FFFFFF" d="M485.523,373.093c4.524-2.642,10.33-1.068,12.944,3.467c2.638,4.525,1.074,10.324-3.479,12.955
					c-4.528,2.622-10.319,1.061-12.942-3.477C479.439,381.502,480.991,375.703,485.523,373.093z"/>
				
					<line fill="none" stroke="#FFFFFF" stroke-width="2.8704" stroke-miterlimit="10" x1="490.354" y1="380.604" x2="499.105" y2="365.486"/>
			</g>
			<g>
				<path fill="#FFFFFF" d="M596.056,324.542c-4.536-2.615-6.093-8.409-3.469-12.945c2.626-4.528,8.409-6.092,12.958-3.48
					c4.528,2.626,6.084,8.424,3.455,12.944C606.379,325.606,600.602,327.163,596.056,324.542z"/>
				
					<line fill="none" stroke="#FFFFFF" stroke-width="2.8704" stroke-miterlimit="10" x1="600.143" y1="316.594" x2="582.68" y2="316.594"/>
			</g>
			<g>
				<path fill="#FFFFFF" d="M582.504,284.562c-4.558,2.631-10.346,1.076-12.957-3.461c-2.608-4.536-1.072-10.33,3.47-12.946
					c4.528-2.62,10.34-1.059,12.947,3.462C588.572,276.143,587.029,281.941,582.504,284.562z"/>
				
					<line fill="none" stroke="#FFFFFF" stroke-width="2.8704" stroke-miterlimit="10" x1="577.658" y1="277.053" x2="568.935" y2="292.17"/>
			</g>
			
				<line fill="none" stroke="#FFFFFF" stroke-width="2.8704" stroke-miterlimit="10" x1="527.211" y1="365.989" x2="535.939" y2="381.129"/>
		</g>
	</g>
	<g>
		<g>
			
				<line fill="none" stroke="#2E5160" stroke-width="30" stroke-miterlimit="10" x1="631.947" y1="256.445" x2="774.331" y2="152.892"/>
			<g>
				<polygon fill="#2E5160" points="784.847,182.234 809.152,127.57 749.656,133.847 				"/>
			</g>
		</g>
	</g>
</g>
</svg>
