<?xml version="1.0" encoding="utf-8"?>
<!-- Generator: Adobe Illustrator 16.0.4, SVG Export Plug-In . SVG Version: 6.00 Build 0)  -->
<!DOCTYPE svg PUBLIC "-//W3C//DTD SVG 1.1//EN" "http://www.w3.org/Graphics/SVG/1.1/DTD/svg11.dtd">
<svg version="1.1" id="Layer_1" xmlns="http://www.w3.org/2000/svg" xmlns:xlink="http://www.w3.org/1999/xlink" x="0px" y="0px"
	 width="70.871px" height="70.871px" viewBox="0 0 70.871 70.871" enable-background="new 0 0 70.871 70.871" xml:space="preserve">
<g>
	<path fill="#FFFFFF" d="M35.052,47.083c2.083,0,5.562-0.234,8.825-1.541c1.193-0.475,1.771-1.828,1.297-3.022
		c-0.479-1.192-1.83-1.772-3.024-1.297c-1.919,0.771-4.009,1.058-5.593,1.157l0.244-5.287c0.004-0.076-0.029-0.145-0.033-0.221
		c0.37-0.072,0.738-0.123,1.113-0.227c5.748-1.583,9.522-6.087,8.43-10.063c-1.096-3.97-6.646-5.908-12.398-4.322
		c-5.751,1.586-9.523,6.09-8.432,10.062c0.715,2.594,3.339,4.295,6.666,4.738L31.91,42.14c-3.501-0.639-6.603-2.342-8.745-4.902
		c-0.826-0.982-2.291-1.115-3.277-0.289c-0.985,0.824-1.115,2.293-0.291,3.275c3.536,4.229,8.962,6.725,14.887,6.855
		C34.659,47.083,34.848,47.083,35.052,47.083z"/>
	<path fill="#FFFFFF" d="M68.044,48.005l-1.563-0.723c-0.737-0.386-2.362-1.437-2.959-3.486c-0.433-1.479-0.75-2.74-0.954-3.592
		c-1.365-6.507-4.091-14.723-6.992-21.087l0.063,0.06c0,0-0.847-1.873-1.679-4.544c-0.604-1.933,0.063-3.621,0.478-4.413l0.06-0.117
		c0.129-0.233,0.224-0.369,0.224-0.369l-0.08,0.089L55.5,8.135c0.513-1.01,0.109-2.245-0.899-2.759
		c-1.009-0.509-2.243-0.11-2.759,0.898l-0.353,0.693c-0.241,0.36-1.735,2.501-3.659,3.347c-1.97,0.87-4.102,1.142-4.986,1.223
		c-5.389,0.169-11.432,0.65-16.98,1.904c-0.646,0.098-2.396,0.312-4.602,0.153c-1.902-0.136-3.187-1.234-3.821-1.926l-0.732-0.938
		c-0.695-0.895-1.986-1.052-2.878-0.355c-0.893,0.696-1.052,1.986-0.355,2.879l0.291,0.374l-0.049-0.048
		c0,0,1.743,2.108,1.103,4.832c-0.641,2.722-1.615,4.624-1.615,4.624l0.089-0.089c-1.334,2.267-2.359,4.617-3.166,7.238
		c-0.267,0.657-1.353,3.235-2.742,5.162c-1.194,1.654-2.694,2.559-3.425,2.934l-0.689,0.143c-1.112,0.23-1.824,1.316-1.594,2.427
		c0.202,0.968,1.055,1.633,2.006,1.633c0.139,0,0.279-0.012,0.419-0.041l0.235-0.05l-0.06,0.025c0,0,2.633-0.75,4.87,0.929
		c2.236,1.682,3.587,3.337,3.587,3.337l-0.029-0.074c2.678,3.312,5.823,5.973,9.286,8.555c0.599,0.558,1.263,1.283,1.859,2.18
		c1.217,1.828,1.551,3.896,1.64,4.709l-0.281,1.111c-0.276,1.099,0.39,2.213,1.487,2.489c0.168,0.042,0.338,0.062,0.503,0.062
		c0.918,0,1.753-0.619,1.987-1.549l0.282-1.115c0.344-0.912,1.059-2.209,2.524-3.028c2.44-1.364,4.512-1.985,4.512-1.985
		l-0.082-0.004c6.846-1.635,13.605-3.898,20.65-6.912c1.045-0.305,2.237-0.557,3.348-0.555c2.354,0.004,4.884,0.698,4.884,0.698
		l-0.031-0.021l1.047,0.481c0.279,0.131,0.572,0.19,0.861,0.19c0.772,0,1.517-0.44,1.862-1.189
		C69.521,49.699,69.072,48.479,68.044,48.005z M12.426,38.689c1.349-8.82,3.373-13.368,8.698-19.575
		c8.159-3.193,19.646-3.568,27.635-3.568l0.354,0.001c4.346,7.025,9.495,22.289,10.189,30.104
		c-10.408,4.793-20.02,7.896-30.062,9.708l-0.933-0.669C21.465,49.785,16.022,45.886,12.426,38.689z"/>
	<path fill="#FFFFFF" d="M50.856,42.5c1.825,0,3.3-1.479,3.3-3.299c0-1.818-1.475-3.293-3.3-3.293c-1.817,0-3.294,1.475-3.294,3.293
		C47.562,41.02,49.039,42.5,50.856,42.5z"/>
</g>
</svg>
