<?xml version="1.0" encoding="utf-8"?>
<!-- Generator: Adobe Illustrator 16.0.4, SVG Export Plug-In . SVG Version: 6.00 Build 0)  -->
<!DOCTYPE svg PUBLIC "-//W3C//DTD SVG 1.1//EN" "http://www.w3.org/Graphics/SVG/1.1/DTD/svg11.dtd">
<svg version="1.1" id="Layer_1" xmlns="http://www.w3.org/2000/svg" xmlns:xlink="http://www.w3.org/1999/xlink" x="0px" y="0px"
	 width="70.871px" height="70.871px" viewBox="0 0 70.871 70.871" enable-background="new 0 0 70.871 70.871" xml:space="preserve">
<path fill="#FFFFFF" d="M63.974,40.917c-2.34-1.504-3.764,1.053-3.764,1.053c-0.258,0.387-0.521,0.752-0.783,1.119V20.719
	c0.312-0.026,0.623-0.06,0.949-0.06c0.291,0,0.567,0.032,0.85,0.053c0,0,2.686-0.214,2.686-2.735s-2.686-2.743-2.686-2.743
	c-0.285-0.014-0.559-0.049-0.85-0.049c-11.104,0-16.58,10.057-21.402,18.926c-1.244,2.295-2.473,4.547-3.765,6.607
	c-1.29-2.064-2.52-4.314-3.764-6.607c-1.304-2.4-2.66-4.879-4.161-7.23c-4.04-6.336-9.13-11.695-17.231-11.695
	c0,0-2.959-0.063-2.959,2.706s2.959,2.769,2.959,2.769c0.378,0,0.744,0.025,1.105,0.06V43.31c-0.25-0.34-0.505-0.667-0.749-1.023
	c0,0-1.704-2.312-3.909-0.234c-1.944,1.832,0.063,4.225,0.063,4.225c1.639,2.395,3.579,4.184,3.579,4.184
	c1.941,1.9,4.149,3.416,6.712,4.316c1.653,0.58,3.454,0.912,5.429,0.912c4.958,0,8.787-2.005,11.934-5.014
	c0.336-0.317,0.655-0.666,0.976-1.004c3.337,3.557,7.445,6.018,12.934,6.018c3.244,0,5.992-0.873,8.4-2.309
	c3.268-1.947,5.85-4.978,8.113-8.346C64.639,45.033,66.313,42.416,63.974,40.917z M13.982,46.582V21.384
	c1.909,0.729,3.58,1.977,5.101,3.582v24.761c-0.778-0.237-1.524-0.546-2.229-0.942C15.827,48.21,14.884,47.442,13.982,46.582z
	 M21.908,50.185V28.521c1.031,1.51,2.012,3.159,2.98,4.877c0.606,1.104,1.225,2.23,1.844,3.359c0.095,0.177,0.192,0.352,0.287,0.529
	v11.856c-1.429,0.681-2.991,1.065-4.737,1.065C22.154,50.208,22.034,50.188,21.908,50.185z M31.19,46.048
	c-0.435,0.447-0.886,0.857-1.346,1.244v-5c0.625,1.049,1.273,2.078,1.954,3.076C31.596,45.599,31.398,45.833,31.19,46.048z
	 M38.601,45.375c0.747-1.09,1.458-2.215,2.139-3.363v5.436C39.992,46.835,39.283,46.142,38.601,45.375z M43.564,49.214V36.98
	c0.042-0.074,0.083-0.148,0.122-0.223c1.634-3.001,3.235-5.938,4.989-8.468V50.16c-0.188,0.008-0.359,0.049-0.553,0.049
	C46.451,50.208,44.949,49.843,43.564,49.214z M55.476,47.478c-1.206,0.98-2.531,1.706-3.975,2.172V24.797
	c1.52-1.567,3.191-2.774,5.101-3.469v25.13C56.236,46.818,55.862,47.164,55.476,47.478z"/>
</svg>
