<?xml version="1.0" encoding="utf-8"?>
<!-- Generator: Adobe Illustrator 16.0.4, SVG Export Plug-In . SVG Version: 6.00 Build 0)  -->
<!DOCTYPE svg PUBLIC "-//W3C//DTD SVG 1.1//EN" "http://www.w3.org/Graphics/SVG/1.1/DTD/svg11.dtd">
<svg version="1.1" id="Layer_1" xmlns="http://www.w3.org/2000/svg" xmlns:xlink="http://www.w3.org/1999/xlink" x="0px" y="0px"
	 width="70.871px" height="70.871px" viewBox="0 0 70.871 70.871" enable-background="new 0 0 70.871 70.871" xml:space="preserve">
<path fill="#FFFFFF" d="M15.59,58.046c-0.55,0.896-0.349,1.066,0.447,0.379L49.068,29.89c0.797-0.688,0.59-1.274-0.463-1.303
	l-9.52-0.271c-1.055-0.029-1.252-0.605-0.446-1.28l16.454-13.762c0.81-0.675,0.607-1.229-0.443-1.229l-17.506-0.023
	c-1.051,0-2.4,0.707-2.997,1.574l-14.12,20.499c-0.597,0.867-0.225,1.587,0.827,1.604l6.464,0.104
	c1.052,0.017,1.462,0.762,0.912,1.66L15.59,58.046z"/>
</svg>
