<?xml version="1.0" encoding="utf-8"?>
<!-- Generator: Adobe Illustrator 16.0.4, SVG Export Plug-In . SVG Version: 6.00 Build 0)  -->
<!DOCTYPE svg PUBLIC "-//W3C//DTD SVG 1.1//EN" "http://www.w3.org/Graphics/SVG/1.1/DTD/svg11.dtd">
<svg version="1.1" id="Layer_1" xmlns="http://www.w3.org/2000/svg" xmlns:xlink="http://www.w3.org/1999/xlink" x="0px" y="0px"
	 width="70.871px" height="70.871px" viewBox="0 0 70.871 70.871" enable-background="new 0 0 70.871 70.871" xml:space="preserve">
<g>
	<circle fill="#FFFFFF" cx="18.857" cy="27.477" r="0.686"/>
	<path fill="#FFFFFF" d="M66.025,42.333c-0.211-0.494-0.432-0.904-0.746-1.365c-0.374-0.541-0.408-0.588-0.801-1.047
		c-0.459-0.518-0.95-1.004-1.477-1.438c0.758-2.228-0.045-6.002-3.77-11.336c-7.193-10.291-13.669-10.291-22.479-4.725
		c-3.56,2.249-4.592,0.738-4.688-0.062c3.048-6.026-0.624-10.727-4.339-9.002c-4.442,2.056-4.938,6.045-5.629,8.674
		c-0.512,0.163-1.073,0.352-1.649,0.549c-0.118-1.093-0.157-2.369-0.157-3.258c0-1.75-0.736-4.87-3.487-2.576
		c-2.025,1.688-2.377,5.982-2.423,8.142c-0.526,0.229-1.018,0.453-1.415,0.655c-2.771,1.422-3.766,2.228-4.934,3.267
		c-0.662,0.59-1.577-0.037-2.42,0.985c-0.838,1.014-3.282,3.2,1.294,5.012c0.808,0.595,2.142,2.816,4.849,4.066
		c3.368,1.555,10.012,1.918,11.277,2.101c2.429,0.345,6.231,2.013,6.231,2.013c0.262,0.227-0.113,2.945-1.27,3.221
		c-0.445,0.106-3.164-0.004-3.599,0.201c-0.381,0.178-2.626,4.023-0.271,4.09c0.619,0.017-0.131,0.691,2.361,0.252
		c0.972-0.17,0.953,0.281,2.512-0.15c0.5-0.137,3.733-4.143,5.425-5.057c5.466,1.621,9.438,2.428,12.292,2.668
		c-0.754,0.429-0.461,1.965,1.041,2.125c0.1,0.111,0.216,0.203,0.371,0.274c0.506,0.562,2.164,0.771,5.955-0.334
		c0.617-0.18,2.619-1.815,2.922-2.562c0.256-0.629,0.631-1.021-0.256-1.508c2.16-0.797,3.614-1.74,4.657-3.707
		c0.07,0.063,0.134,0.108,0.2,0.178c0.079,0.061,0.562,0.543,0.618,0.632c0.141,0.146,0.334,0.407,0.471,0.644
		c0.293,0.486,0.5,1.049,0.574,1.676c0.151,1.261-0.335,2.803-1.297,4.16c-0.958,1.361-2.293,2.561-3.681,3.5
		c-1.389,0.953-2.82,1.683-4.086,2.229c-1.266,0.556-2.369,0.913-3.141,1.175c-0.777,0.232-1.225,0.367-1.225,0.367l-0.014,0.005
		c-0.197,0.058-0.324,0.257-0.287,0.462c0.037,0.225,0.25,0.377,0.475,0.34c0,0,0.469-0.08,1.291-0.22
		c0.814-0.167,1.992-0.394,3.376-0.806c1.388-0.404,2.989-0.977,4.634-1.825c1.645-0.843,3.333-1.979,4.754-3.535
		c1.406-1.534,2.527-3.64,2.584-5.935C66.684,44.416,66.44,43.294,66.025,42.333z M19.239,30.134
		c-1.494-0.262-3.306-1.01-2.893-1.832c0.415-0.834,0.954-1.66,1.779-2.07c0.086-0.042,0.183-0.07,0.274-0.104
		c0.257-0.091,0.523-0.168,0.839-0.168c0.293,0,0.553,0.07,0.809,0.144c0.151,0.05,0.301,0.101,0.439,0.168l0,0
		c0.809,0.399,1.341,1.147,1.341,2.031C21.828,29.59,21.39,30.513,19.239,30.134z"/>
</g>
</svg>
