<?xml version="1.0" encoding="utf-8"?>
<!-- Generator: Adobe Illustrator 16.0.4, SVG Export Plug-In . SVG Version: 6.00 Build 0)  -->
<!DOCTYPE svg PUBLIC "-//W3C//DTD SVG 1.1//EN" "http://www.w3.org/Graphics/SVG/1.1/DTD/svg11.dtd">
<svg version="1.1" id="Layer_1" xmlns="http://www.w3.org/2000/svg" xmlns:xlink="http://www.w3.org/1999/xlink" x="0px" y="0px"
	 width="70.871px" height="70.871px" viewBox="0 0 70.871 70.871" enable-background="new 0 0 70.871 70.871" xml:space="preserve">
<g>
	<g>
		<path fill="#FFFFFF" d="M32.048,23.263c0.096,0.859,0.243,1.636,0.417,2.362c0.071,0.304,0.16,0.566,0.243,0.848
			c0.11,0.376,0.219,0.751,0.344,1.091c0.133,0.364,0.273,0.692,0.419,1.017c0.077,0.171,0.152,0.34,0.233,0.5
			c1.025,2.071,2.213,3.259,2.836,3.793l-0.004,0.001c0.032,0.026,0.051,0.04,0.082,0.064c0.199,0.168,0.322,0.253,0.346,0.27
			l0.009,0.007h0.001l0.009,0.006l7.776,1.594c0,0-0.057-0.039-0.081-0.057c-0.359-0.263-1.864-1.47-3.147-4
			c-0.751-1.484-1.433-3.395-1.748-5.898c-0.061-0.485-0.074-0.9-0.104-1.336c-0.244-3.708,0.57-5.703,1.082-6.567
			c0.012-0.018,0.023-0.044,0.031-0.061c0.062-0.097,0.107-0.162,0.156-0.229c0.03-0.042,0.067-0.096,0.092-0.127
			c0.035-0.044,0.074-0.091,0.088-0.106c0.008-0.009,0.033-0.037,0.033-0.037L33.45,14.81c0,0-1.739,2.258-1.477,7.261
			C31.995,22.463,32,22.835,32.048,23.263z"/>
	</g>
	<g>
		<path fill="#FFFFFF" d="M31.192,30.413l1.315,0.835c0.114-0.054,0.24-0.123,0.359-0.187c-0.981-1.598-1.892-3.803-2.343-6.727
			c-0.684,0.88-1.414,1.64-2.162,2.27C29.585,29.264,31.109,30.357,31.192,30.413z"/>
	</g>
	<g>
		<path fill="#FFFFFF" d="M9.594,27.575l6.52,1.346c0,0,0.921-0.141,2.262-0.836c-0.979-1.601-1.903-3.805-2.347-6.729
			c-2.081,2.681-4.641,4.119-6.551,4.859C7.867,26.841,9.594,27.575,9.594,27.575z"/>
	</g>
	<g>
		<path fill="#FFFFFF" d="M17.507,19.039c0.021,0.407,0.026,0.798,0.075,1.244c0.095,0.858,0.241,1.636,0.415,2.363
			c0.07,0.3,0.158,0.56,0.238,0.84c0.11,0.379,0.219,0.756,0.346,1.098c0.132,0.361,0.27,0.687,0.414,1.008
			c0.079,0.174,0.155,0.346,0.237,0.509c0.194,0.395,0.389,0.758,0.592,1.089v0.001c0.809,1.319,1.634,2.164,2.153,2.623
			c-0.002,0-0.006,0.002-0.008,0.002c0.1,0.087,0.169,0.139,0.244,0.198c0.032,0.026,0.063,0.052,0.09,0.073
			c0.05,0.038,0.069,0.054,0.101,0.075c0.048,0.036,0.078,0.058,0.09,0.065c0,0.001,0.002,0.002,0.002,0.002l0,0
			c0.002,0.001,0.013,0.009,0.013,0.009l3.667,0.756l0.04,0.009l4.068,0.838c0,0-1.822-1.209-3.298-4.214
			c-0.722-1.468-1.367-3.329-1.662-5.756c-0.063-0.488-0.078-0.905-0.107-1.345c-0.246-3.649,0.541-5.622,1.053-6.499
			c0.019-0.029,0.039-0.072,0.057-0.099c0.056-0.092,0.104-0.158,0.149-0.221c0.032-0.046,0.07-0.101,0.097-0.134
			c0.034-0.041,0.072-0.088,0.088-0.104c0.01-0.011,0.037-0.041,0.037-0.041l-7.709-1.603
			C18.989,11.826,17.268,14.063,17.507,19.039L17.507,19.039z"/>
	</g>
	<g>
		<path fill="#FFFFFF" d="M40.853,58.367L40.853,58.367c-0.005-0.002-0.044-0.019-0.091-0.043c-0.007-0.003-0.017-0.009-0.025-0.013
			c-0.442-0.218-2.108-1.142-3.774-3.39l0,0c-0.988-1.334-1.976-3.127-2.704-5.529c-0.14-0.463-0.223-0.865-0.322-1.287
			c-0.843-3.531-0.412-5.611-0.053-6.583c0.017-0.044,0.032-0.101,0.047-0.138c0.041-0.098,0.077-0.172,0.111-0.242
			c0.024-0.053,0.051-0.109,0.072-0.145c0.027-0.051,0.058-0.104,0.071-0.125l0,0c0.009-0.017,0.031-0.052,0.031-0.052l-7.863-0.256
			l-0.001,0.002c0,0-0.006,0.011-0.007,0.013c-0.043,0.08-1.563,2.935,0.034,8.541c0.197,0.684,0.423,1.305,0.658,1.896
			c0.039,0.095,0.076,0.195,0.116,0.291c0.234,0.559,0.481,1.07,0.739,1.549c0.036,0.068,0.073,0.133,0.11,0.198
			c1.613,2.889,3.526,4.256,4.416,4.776c0,0-0.002,0-0.003,0c0.013,0.008,0.017,0.008,0.029,0.017
			c0.3,0.174,0.479,0.248,0.479,0.248l3.752,0.13l0.211,0.006l3.973,0.139L40.853,58.367z"/>
	</g>
	<g>
		<path fill="#FFFFFF" d="M25.974,57.819c-0.058-0.028-0.137-0.069-0.237-0.126c-0.003-0.002-0.004-0.002-0.006-0.002
			c-0.544-0.307-1.667-1.041-2.876-2.451c-0.009-0.01-0.016-0.019-0.024-0.027c-0.239-0.281-0.48-0.586-0.723-0.922l0,0
			c-0.953-1.324-1.897-3.082-2.601-5.41c-0.142-0.465-0.226-0.865-0.326-1.289c-0.875-3.629-0.395-5.729-0.031-6.664
			c0.008-0.02,0.017-0.047,0.023-0.065c0.042-0.103,0.077-0.169,0.11-0.239c0.026-0.052,0.055-0.113,0.076-0.148
			c0.026-0.049,0.056-0.1,0.066-0.115c0.008-0.008,0.027-0.041,0.027-0.041l-7.876-0.263l-0.001,0.002l-0.001,0.002
			c-0.013,0.024-1.593,2.896,0.042,8.562c0.197,0.688,0.423,1.311,0.66,1.902c0.038,0.096,0.074,0.193,0.114,0.289
			c0.234,0.559,0.482,1.074,0.739,1.551c0.039,0.072,0.077,0.139,0.117,0.209c1.56,2.793,3.391,4.15,4.31,4.704
			c-0.002,0-0.004,0.002-0.006,0.005c0.035,0.02,0.052,0.026,0.084,0.045c0.104,0.062,0.18,0.104,0.254,0.141
			c0.044,0.025,0.08,0.046,0.113,0.062c0.078,0.039,0.118,0.059,0.13,0.062c0.002,0,0.011,0.006,0.012,0.006l0,0
			c0.001,0,0.01,0.004,0.01,0.004l7.923,0.27c0,0-0.033-0.016-0.075-0.035C25.994,57.828,25.982,57.824,25.974,57.819z"/>
	</g>
	<g>
		<path fill="#FFFFFF" d="M4.314,56.025c-1.313,0.743,0.745,1.129,0.745,1.129l6.593,0.223c0,0,0.874-0.291,2.068-1.194
			c-1.233-1.408-2.514-3.417-3.444-6.218C8.569,53.136,6.104,55.016,4.314,56.025z"/>
	</g>
	<g>
		<path fill="#FFFFFF" d="M66.173,37.679c-0.86-1.752-2.383-2.536-4.19-2.161c-2.239,0.469-3.866,0.153-4.911-0.237
			c-1.062-1.579-2.175-3.945-2.605-7.397c-0.062-0.491-0.074-0.91-0.104-1.35v-0.001c-0.23-3.595,0.543-5.562,1.062-6.459
			c0.025-0.043,0.055-0.1,0.078-0.137c0.053-0.085,0.098-0.148,0.142-0.208c0.039-0.053,0.078-0.111,0.108-0.147
			c0.031-0.039,0.07-0.086,0.086-0.103c0.012-0.013,0.039-0.044,0.039-0.044l-7.731-1.588c0,0-2.069,2.568-1.399,8.447
			c0.092,0.857,0.238,1.634,0.408,2.359c0.072,0.304,0.16,0.567,0.243,0.851c0.106,0.374,0.215,0.748,0.341,1.086
			c0.133,0.361,0.271,0.688,0.415,1.011c0.078,0.173,0.155,0.344,0.235,0.506c0.193,0.394,0.389,0.756,0.591,1.087
			c1.321,2.151,2.701,3.052,2.701,3.052l4.108,0.853c1.354,0.608,3.576,1.194,6.643,0.549c0.58-0.13,1.251-0.103,1.79,0.992
			c1.627,3.31-0.093,12.573-4.8,16.586c-1.848,1.575-4.43,1.743-6.31,1.597c-1.321-1.375-2.846-3.559-3.864-6.922
			c-0.144-0.465-0.229-0.867-0.328-1.291v-0.002c-0.883-3.652-0.387-5.762-0.021-6.682c0.008-0.012,0.012-0.03,0.016-0.041
			c0.041-0.104,0.078-0.172,0.112-0.243c0.025-0.048,0.052-0.108,0.072-0.146c0.026-0.045,0.054-0.092,0.065-0.107
			c0.01-0.014,0.029-0.045,0.029-0.045l-6.477-0.229l-0.782-0.029H41.91l-0.591-0.021h-0.003c0,0-0.01,0.024-0.012,0.028
			c-0.072,0.133-1.287,2.623-0.209,7.369c0.087,0.384,0.156,0.752,0.277,1.166c0.192,0.685,0.416,1.304,0.647,1.893
			c0.041,0.102,0.08,0.204,0.119,0.303c0.231,0.557,0.478,1.068,0.731,1.541c0.041,0.074,0.08,0.145,0.121,0.217
			c0.561,1.002,1.151,1.824,1.73,2.486c0.002,0.002,0.002,0.002,0.002,0.002c1.673,1.914,3.188,2.538,3.188,2.538l3.016,0.108
			c0.738,0.148,1.892,0.328,3.226,0.328c2.112,0,4.663-0.447,6.679-2.166C66.096,52.389,68.339,42.087,66.173,37.679z"/>
	</g>
	<g>
		<path fill="#FFFFFF" d="M45.664,33.387l1.445,0.917c0.133-0.062,0.278-0.142,0.421-0.215c-0.979-1.599-1.901-3.799-2.339-6.717
			c-0.725,0.928-1.498,1.718-2.286,2.368C44.119,32.286,45.583,33.332,45.664,33.387z"/>
	</g>
	<g>
		<path fill="#FFFFFF" d="M23.308,53.033c1.654,2.414,3.331,3.233,3.423,3.274l1.43,0.601c0.101-0.07,0.211-0.162,0.317-0.24
			c-1.232-1.408-2.511-3.416-3.442-6.209C24.515,51.431,23.93,52.294,23.308,53.033z"/>
	</g>
	<g>
		<path fill="#FFFFFF" d="M38.164,53.686c1.631,2.301,3.256,3.083,3.346,3.122l1.572,0.652c0.121-0.082,0.248-0.185,0.377-0.278
			c-1.23-1.406-2.508-3.414-3.433-6.208C39.469,52.007,38.837,52.914,38.164,53.686z"/>
	</g>
</g>
</svg>
