<?xml version="1.0" encoding="utf-8"?>
<!-- Generator: Adobe Illustrator 16.0.4, SVG Export Plug-In . SVG Version: 6.00 Build 0)  -->
<!DOCTYPE svg PUBLIC "-//W3C//DTD SVG 1.1//EN" "http://www.w3.org/Graphics/SVG/1.1/DTD/svg11.dtd">
<svg version="1.1" id="Layer_1" xmlns="http://www.w3.org/2000/svg" xmlns:xlink="http://www.w3.org/1999/xlink" x="0px" y="0px"
	 width="70.871px" height="70.871px" viewBox="0 0 70.871 70.871" enable-background="new 0 0 70.871 70.871" xml:space="preserve">
<path fill="#FFFFFF" d="M27.243,15.587C11.397,22.128,2.181,36.353,6.699,47.298c4.519,10.941,21.085,14.527,36.931,7.984
	c15.844-6.539,25.058-20.766,20.541-31.709C59.653,12.628,43.085,9.046,27.243,15.587z M51.248,42.151
	c-1-1.366-2.062-3.233-3.226-5.438c-3.021-5.73-5.14-11.498-5.16-11.553c-0.384-1.042-1.536-1.579-2.577-1.196
	c-1.078,0.41-1.578,1.534-1.197,2.574c0.091,0.246,2.229,6.07,5.381,12.048c1.244,2.359,2.445,4.304,3.449,5.816
	c1.615,2.438,0.246,4.061-0.713,4.624c-1.597,0.94-3.302,1.802-5.106,2.544c-0.96,0.393-1.912,0.773-2.88,1.062
	c-2.418,0.715-4.032-0.508-4.868-1.637c-1.127-1.533-2.494-3.625-3.824-6.264c-3.158-6.255-4.993-12.791-5.011-12.855
	c-0.297-1.068-1.404-1.694-2.474-1.397c-1.08,0.295-1.695,1.405-1.397,2.473c0.077,0.281,1.953,6.968,5.295,13.591
	c0.992,1.965,2.001,3.654,2.938,5.066c0.703,1.059,1.09,2.999-1.554,2.971c-8.466-0.088-15.486-2.942-17.91-8.815
	c-1.365-3.306-1.07-7.021,0.534-10.679c0.378-0.858,1.55-1.501,2.019,0.075c0.395,1.328,0.792,2.777,1.284,4.235
	c1.868,5.562,3.951,8.824,4.038,8.958c0.533,0.831,1.573,1.137,2.452,0.771c0.11-0.047,0.217-0.103,0.322-0.168
	c0.932-0.6,1.203-1.842,0.604-2.775c-0.019-0.029-1.912-3.02-3.609-8.064c-0.768-2.286-1.482-4.535-1.825-6.384
	c-0.572-3.101,0.496-4.688,1.182-5.313c1.894-1.729,4.138-3.244,6.53-4.732c2.069-1.287,3.464,0.341,3.854,1.618
	c0.784,2.578,1.887,5.968,3.219,9.455c2.739,7.164,5.752,12.314,5.861,12.494c0.523,0.85,1.58,1.176,2.475,0.804
	c0.1-0.039,0.193-0.089,0.289-0.146c0.943-0.582,1.238-1.816,0.658-2.763c-0.022-0.042-2.936-5.041-5.529-11.825
	c-1.447-3.786-2.63-7.515-3.404-10.113c-0.327-1.093-0.244-2.817,1.889-3.454c2.982-0.89,5.949-1.304,8.751-1.43
	c2.182-0.1,3.5,1.613,3.83,2.774c0.533,1.888,1.293,4.327,2.257,6.819c2.047,5.289,4.231,8.339,4.323,8.466
	c0.557,0.769,1.552,1.027,2.393,0.681c0.143-0.059,0.279-0.135,0.411-0.229c0.896-0.647,1.103-1.901,0.456-2.803
	c-0.02-0.027-1.99-2.797-3.838-7.563c-0.709-1.836-1.307-3.666-1.779-5.243c-0.249-0.842,1.01-1.848,1.789-1.574
	c4.062,1.424,7.16,3.938,8.609,7.448c2.242,5.437,0.041,11.982-5.164,17.555C54.621,43.38,52.667,44.089,51.248,42.151z"/>
</svg>
