<?xml version="1.0" encoding="utf-8"?>
<!-- Generator: Adobe Illustrator 16.0.4, SVG Export Plug-In . SVG Version: 6.00 Build 0)  -->
<!DOCTYPE svg PUBLIC "-//W3C//DTD SVG 1.1//EN" "http://www.w3.org/Graphics/SVG/1.1/DTD/svg11.dtd">
<svg version="1.1" id="Layer_1" xmlns="http://www.w3.org/2000/svg" xmlns:xlink="http://www.w3.org/1999/xlink" x="0px" y="0px"
	 width="70.871px" height="70.871px" viewBox="0 0 70.871 70.871" enable-background="new 0 0 70.871 70.871" xml:space="preserve">
<g>
	<path fill="#FFFFFF" d="M58.205,12.684c-1.572-1.569-3.631-2.435-5.797-2.435c-2.295,0-4.535,0.975-6.31,2.744l-4.573,4.578
		l-2.468-2.468c-1.228-1.227-3.214-1.227-4.439,0c-1.226,1.225-1.225,3.211,0,4.436l1.188,1.188L16.831,39.701
		c-0.379,0.336-1.332,1.26-1.931,2.469c-0.552,1.115-0.695,2.061-0.723,2.627l-0.735,5.472c-2.427,2.426-4.994,5.175-1.502,8.677
		c0.505,0.504,1.679,1.678,3.501,1.678c1.936,0,3.135-1.123,5.181-3.174l5.785-0.779c0.107-0.014,0.214-0.032,0.319-0.06
		c0.092-0.021,0.927-0.226,1.749-0.56c1.098-0.448,2.145-1.426,2.544-1.824l19.145-19.145l1.41,1.411
		c0.612,0.612,1.414,0.918,2.221,0.918c0.801,0,1.605-0.306,2.218-0.918c1.227-1.226,1.225-3.211,0-4.437l-2.693-2.692l4.572-4.574
		C61.428,21.251,61.562,16.045,58.205,12.684z M28.777,51.981c0,0-0.876,0.875-1.499,1.13c-0.624,0.254-1.294,0.415-1.294,0.415
		l-6.85,0.921c-2.056,2.057-2.929,3.002-3.694,3.002c-0.397,0-0.765-0.256-1.255-0.744c-1.439-1.443-0.869-1.82,2.257-4.951
		l0.901-6.707c0,0-0.027-0.608,0.398-1.469c0.426-0.859,1.256-1.561,1.256-1.561L38.05,22.97l9.871,9.869L28.777,51.981z"/>
	<path fill="#FFFFFF" d="M20.914,43.932c0,0-0.594,0.519-0.804,0.94c-0.195,0.396-0.315,0.935-0.315,0.935l-0.405,5.034
		c0,0-0.157,0.398,0.052,0.607c0.199,0.197,0.607,0.045,0.607,0.045l4.545-0.797c0.165-0.044,0.625-0.236,0.998-0.389
		c0.166-0.076,0.57-0.355,0.865-0.65l13.91-13.906l-12.069,0.794L20.914,43.932z"/>
</g>
</svg>
