<?xml version="1.0" encoding="utf-8"?>
<!-- Generator: Adobe Illustrator 16.0.4, SVG Export Plug-In . SVG Version: 6.00 Build 0)  -->
<!DOCTYPE svg PUBLIC "-//W3C//DTD SVG 1.1//EN" "http://www.w3.org/Graphics/SVG/1.1/DTD/svg11.dtd">
<svg version="1.1" id="Layer_1" xmlns="http://www.w3.org/2000/svg" xmlns:xlink="http://www.w3.org/1999/xlink" x="0px" y="0px"
	 width="70.871px" height="70.871px" viewBox="0 0 70.871 70.871" enable-background="new 0 0 70.871 70.871" xml:space="preserve">
<path fill="#FFFFFF" d="M63.785,27.205c-1.392-0.798-3.063-0.61-4.236,0.331h-3.293l-3.684-6.384l1.856-3.221
	c0.063-0.033,0.135-0.053,0.2-0.09c1.802-1.035,2.412-3.34,1.371-5.141c-1.035-1.797-3.345-2.42-5.142-1.375
	c-1.388,0.796-2.063,2.339-1.834,3.83l-1.677,2.907h-7.67l-1.651-2.867c0.004-0.07,0.021-0.135,0.021-0.206
	c0-2.09-1.687-3.775-3.762-3.775c-2.082,0-3.771,1.685-3.771,3.775c0,1.594,0.998,2.95,2.402,3.497l1.538,2.67l-3.855,6.67h-7.564
	l-1.604-2.793c0.005-0.071,0.022-0.138,0.022-0.21c0-2.082-1.689-3.767-3.771-3.767c-2.081,0-3.771,1.685-3.771,3.767
	c0,1.602,1.005,2.962,2.414,3.508l1.575,2.743l-3.573,6.191l-3.302-0.004c-0.059-0.039-0.108-0.088-0.17-0.124
	c-1.797-1.044-4.105-0.425-5.142,1.38c-1.045,1.801-0.421,4.109,1.379,5.146c1.38,0.797,3.056,0.61,4.231-0.332l2.862,0.004
	l3.82,6.619l-1.729,2.984c-0.062,0.033-0.129,0.053-0.189,0.087c-1.801,1.037-2.417,3.343-1.38,5.144
	c1.041,1.801,3.346,2.42,5.146,1.379c1.391-0.801,2.065-2.346,1.833-3.838l1.558-2.691h7.534l1.484,2.577
	c-0.031,0.19-0.061,0.386-0.061,0.586c0,2.082,1.689,3.771,3.762,3.771c2.091,0,3.776-1.688,3.776-3.771
	c0-1.455-0.839-2.705-2.055-3.331l-1.634-2.835l3.902-6.761h7.463l1.449,2.515c-0.027,0.19-0.058,0.381-0.058,0.579
	c0,2.072,1.681,3.758,3.771,3.758c2.074,0,3.764-1.686,3.764-3.758c0-1.465-0.848-2.721-2.064-3.346l-1.671-2.899l3.748-6.497h3.49
	c0.058,0.038,0.106,0.086,0.169,0.121c1.805,1.045,4.102,0.426,5.143-1.38C66.203,30.551,65.582,28.246,63.785,27.205z
	 M30.813,46.949h-7.535l-3.766-6.527l3.766-6.526h7.535l3.77,6.526L30.813,46.949z M47.283,37.185h-7.539l-3.771-6.526l3.771-6.527
	h7.539l3.766,6.527L47.283,37.185z"/>
</svg>
