<?xml version="1.0" encoding="utf-8"?>
<!-- Generator: Adobe Illustrator 16.0.4, SVG Export Plug-In . SVG Version: 6.00 Build 0)  -->
<!DOCTYPE svg PUBLIC "-//W3C//DTD SVG 1.1//EN" "http://www.w3.org/Graphics/SVG/1.1/DTD/svg11.dtd">
<svg version="1.1" id="Layer_1" xmlns="http://www.w3.org/2000/svg" xmlns:xlink="http://www.w3.org/1999/xlink" x="0px" y="0px"
	 width="70.871px" height="70.871px" viewBox="0 0 70.871 70.871" enable-background="new 0 0 70.871 70.871" xml:space="preserve">
<g>
	<path fill="#FFFFFF" d="M35.436,7.865c-15.203,0-27.57,12.368-27.57,27.568c0,15.203,12.367,27.57,27.57,27.57
		c15.201,0,27.567-12.367,27.567-27.57C63.003,20.233,50.637,7.865,35.436,7.865z M36.662,58.714v-4.057
		c0-1.168-0.946-2.115-2.114-2.115s-2.115,0.947-2.115,2.115v3.902C22,57.21,13.721,48.958,12.326,38.541h3.331
		c1.168,0,2.115-0.947,2.115-2.115c0-1.168-0.947-2.114-2.115-2.114h-3.505c0.593-12.347,10.793-22.216,23.285-22.216
		c12.871,0,23.339,10.47,23.339,23.339C58.775,47.889,48.96,58.069,36.662,58.714z"/>
	<path fill="#FFFFFF" d="M49.619,36.033l-11.836-2.52L35.27,19.391c-0.087-0.478-0.461-0.876-0.967-0.967
		c-0.649-0.115-1.27,0.318-1.386,0.967l-3.01,16.911c-0.082,0.475-0.09,0.988,0,1.49c0.287,1.61,1.454,2.828,2.913,3.291
		c0.812,0.379,1.744,0.52,2.688,0.318l14.111-3.003c0.453-0.097,0.83-0.45,0.932-0.933C50.689,36.815,50.271,36.171,49.619,36.033z"
		/>
</g>
</svg>
