<?xml version="1.0" encoding="utf-8"?>
<!-- Generator: Adobe Illustrator 16.0.4, SVG Export Plug-In . SVG Version: 6.00 Build 0)  -->
<!DOCTYPE svg PUBLIC "-//W3C//DTD SVG 1.1//EN" "http://www.w3.org/Graphics/SVG/1.1/DTD/svg11.dtd">
<svg version="1.1" id="Layer_1" xmlns="http://www.w3.org/2000/svg" xmlns:xlink="http://www.w3.org/1999/xlink" x="0px" y="0px"
	 width="70.871px" height="70.871px" viewBox="0 0 70.871 70.871" enable-background="new 0 0 70.871 70.871" xml:space="preserve">
<g>
	<ellipse fill="#FFFFFF" cx="30.129" cy="30.155" rx="5.508" ry="2.636"/>
	<path fill="#FFFFFF" d="M2.387,32.062c-0.441-0.287-0.604-0.948-0.364-1.477c0.087-0.19,0.214-0.337,0.364-0.434
		c0,0,14.994-5.431,27.746-5.431c12.326,0,16.646,5.113,16.646,5.113c0.588,0.376,0.809,1.251,0.491,1.956
		c-0.112,0.262-0.289,0.46-0.491,0.591c0,0-5.826,5.11-22.196,5.11C7.887,37.49,2.387,32.062,2.387,32.062z M48.792,54.078
		c0,2.195-1.717,3.986-3.821,3.986H24.474c-2.104,0-3.821-1.791-3.821-3.986v-10.68c0-2.193,1.718-3.986,3.821-3.986h20.497
		c2.104,0,3.821,1.793,3.821,3.986V54.078z"/>
	<path fill="#FFFFFF" d="M36.932,44.896c-3.238,0-5.863,1.578-5.863,3.516c0,1.939,2.625,3.519,5.863,3.519
		c3.237,0,5.862-1.578,5.862-3.519C42.794,46.475,40.169,44.896,36.932,44.896z"/>
	<path fill="#FFFFFF" d="M66.492,30.156c0,1.268,1.881,2.317,4.375,2.57v-5.142C68.373,27.836,66.492,28.888,66.492,30.156z"/>
	<path fill="#FFFFFF" d="M60.744,48.412c0,1.939,2.623,3.519,5.86,3.519c1.692,0,3.192-0.446,4.263-1.14v-4.758
		c-1.068-0.689-2.568-1.137-4.263-1.137C63.367,44.896,60.744,46.475,60.744,48.412z"/>
	<ellipse fill="#FFFFFF" cx="57.298" cy="18.24" rx="5.509" ry="2.635"/>
	<path fill="#FFFFFF" d="M11.128,20.875c3.042,0,5.508-1.181,5.508-2.635c0-1.454-2.466-2.639-5.508-2.639
		c-3.041,0-5.509,1.186-5.509,2.639C5.619,19.694,8.087,20.875,11.128,20.875z"/>
	<path fill="#FFFFFF" d="M8.384,44.896c-3.238,0-5.864,1.578-5.864,3.516c0,1.939,2.626,3.519,5.864,3.519
		c3.237,0,5.862-1.578,5.862-3.519C14.246,46.475,11.621,44.896,8.384,44.896z"/>
	<path fill="#FFFFFF" d="M19.345,54.078v-10.68c0-2.193-1.719-3.986-3.821-3.986H0v18.652h15.523
		C17.626,58.064,19.345,56.273,19.345,54.078z M8.384,51.93c-3.238,0-5.864-1.578-5.864-3.519c0-1.938,2.626-3.516,5.864-3.516
		c3.237,0,5.862,1.578,5.862,3.516C14.246,50.352,11.621,51.93,8.384,51.93z"/>
	<path fill="#FFFFFF" d="M44.971,39.412H24.474c-2.104,0-3.821,1.793-3.821,3.986v10.68c0,2.195,1.718,3.986,3.821,3.986h20.497
		c2.104,0,3.821-1.791,3.821-3.986v-10.68C48.792,41.205,47.076,39.412,44.971,39.412z M36.932,51.93
		c-3.238,0-5.863-1.578-5.863-3.519c0-1.938,2.625-3.516,5.863-3.516c3.237,0,5.862,1.578,5.862,3.516
		C42.794,50.352,40.169,51.93,36.932,51.93z"/>
	<path fill="#FFFFFF" d="M50.103,43.398v10.68c0,2.195,1.718,3.986,3.82,3.986h16.943v-7.273c-1.068,0.692-2.568,1.14-4.263,1.14
		c-3.237,0-5.86-1.578-5.86-3.519c0-1.938,2.623-3.516,5.86-3.516c1.692,0,3.192,0.445,4.263,1.137v-6.621H53.923
		C51.82,39.412,50.103,41.205,50.103,43.398z"/>
	<path fill="#FFFFFF" d="M26.832,20.462c0.203-0.128,0.377-0.329,0.492-0.591c0.315-0.702,0.094-1.578-0.492-1.954
		c0,0-4.32-5.113-16.646-5.113c-3.347,0-6.842,0.38-10.187,0.932v11.673c1.447,0.099,2.971,0.165,4.637,0.165
		C21.005,25.575,26.832,20.462,26.832,20.462z M11.128,15.601c3.042,0,5.508,1.186,5.508,2.639c0,1.454-2.466,2.635-5.508,2.635
		c-3.041,0-5.509-1.181-5.509-2.635C5.619,16.787,8.087,15.601,11.128,15.601z"/>
	<path fill="#FFFFFF" d="M30.029,18.236c-0.148,0.097-0.276,0.244-0.363,0.434c-0.239,0.528-0.076,1.189,0.363,1.474
		c0,0,5.502,5.431,22.198,5.431c9.399,0,15.301-1.684,18.64-3.12v-7.011c-2.609-1.304-6.791-2.639-13.089-2.639
		C45.024,12.805,30.029,18.236,30.029,18.236z M62.807,18.24c0,1.454-2.466,2.635-5.509,2.635c-3.039,0-5.508-1.181-5.508-2.635
		c0-1.454,2.469-2.639,5.508-2.639C60.341,15.601,62.807,16.787,62.807,18.24z"/>
	<path fill="#FFFFFF" d="M46.779,32.38c0.202-0.13,0.379-0.329,0.491-0.591c0.315-0.704,0.097-1.58-0.491-1.956
		c0,0-4.32-5.113-16.646-5.113c-12.752,0-27.746,5.431-27.746,5.431c-0.15,0.097-0.277,0.244-0.364,0.434
		c-0.24,0.528-0.077,1.189,0.364,1.477c0,0,5.5,5.428,22.196,5.428C40.953,37.49,46.779,32.38,46.779,32.38z M30.129,27.519
		c3.042,0,5.508,1.184,5.508,2.637c0,1.453-2.466,2.635-5.508,2.635c-3.041,0-5.508-1.181-5.508-2.635
		C24.621,28.702,27.088,27.519,30.129,27.519z"/>
	<path fill="#FFFFFF" d="M50.062,30.585c-0.238,0.528-0.076,1.189,0.363,1.477c0,0,5.143,5.021,20.439,5.391v-4.728
		c-2.494-0.252-4.373-1.302-4.373-2.57c0-1.268,1.879-2.319,4.373-2.572v-2.358c-10.547,1.345-20.439,4.926-20.439,4.926
		C50.277,30.249,50.149,30.395,50.062,30.585z"/>
</g>
</svg>
