<?xml version="1.0" encoding="utf-8"?>
<!-- Generator: Adobe Illustrator 16.0.4, SVG Export Plug-In . SVG Version: 6.00 Build 0)  -->
<!DOCTYPE svg PUBLIC "-//W3C//DTD SVG 1.1//EN" "http://www.w3.org/Graphics/SVG/1.1/DTD/svg11.dtd">
<svg version="1.1" id="Layer_1" xmlns="http://www.w3.org/2000/svg" xmlns:xlink="http://www.w3.org/1999/xlink" x="0px" y="0px"
	 width="70.871px" height="70.871px" viewBox="0 0 70.871 70.871" enable-background="new 0 0 70.871 70.871" xml:space="preserve">
<g>
	<path fill="#FFFFFF" d="M29.413,41.737v-2.544c0-1.938,0.395-3.568,1.185-4.9c0.788-1.33,2.19-2.627,4.201-3.893
		c1.599-1.004,2.748-1.91,3.449-2.722c0.701-0.806,1.051-1.734,1.051-2.779c0-0.831-0.375-1.487-1.127-1.969
		c-0.748-0.483-1.726-0.729-2.928-0.729c-2.979,0-6.462,1.058-10.446,3.168l-4.113-8.05c4.913-2.801,10.042-4.2,15.39-4.2
		c4.399,0,7.852,0.966,10.357,2.899c2.505,1.933,3.756,4.567,3.756,7.9c0,2.388-0.559,4.457-1.67,6.204
		c-1.115,1.744-2.896,3.396-5.344,4.954c-2.07,1.341-3.369,2.322-3.891,2.942c-0.521,0.623-0.783,1.358-0.783,2.209v1.508h-9.086
		V41.737z M28.141,52.091c0-1.812,0.527-3.209,1.584-4.199c1.055-0.982,2.608-1.479,4.66-1.479c1.973,0,3.488,0.5,4.543,1.494
		c1.054,0.996,1.581,2.395,1.581,4.186c0,1.796-0.547,3.188-1.641,4.175c-1.096,0.987-2.59,1.483-4.484,1.483
		c-1.952,0-3.482-0.492-4.588-1.467C28.694,55.305,28.141,53.912,28.141,52.091z"/>
</g>
</svg>
